<svg width="110" height="110" viewBox="0 0 110 110" fill="none" xmlns="http://www.w3.org/2000/svg">
<g clip-path="url(#clip0_1_309)">
<path d="M76.6202 6.38766C86.2374 10.6601 94.3717 17.6888 99.9938 26.5846C105.616 35.4805 108.473 45.8438 108.205 56.3639C107.936 66.8839 104.554 77.088 98.4853 85.6855C92.4168 94.283 83.9348 100.888 74.1122 104.664C64.2896 108.44 53.5678 109.219 43.3028 106.901C33.0378 104.583 23.6908 99.2722 16.4442 91.6413C9.19756 84.0104 4.37686 74.4018 2.5918 64.0308C0.806735 53.6598 2.13752 42.9924 6.41585 33.3778C12.1561 20.4975 22.7727 10.4211 35.9351 5.36081C49.0975 0.300521 63.7299 0.669836 76.6202 6.38766Z" stroke="#A1897E" stroke-width="3.92585" stroke-miterlimit="22.93"/>
<path d="M70.564 20.0627C77.4701 23.1418 83.3082 28.1994 87.3403 34.5961C91.3723 40.9928 93.4173 48.4413 93.2166 56.0001C93.0158 63.5588 90.5784 70.8884 86.2126 77.0621C81.8467 83.2358 75.7484 87.9764 68.6886 90.6846C61.6288 93.3928 53.9246 93.947 46.5499 92.2771C39.1751 90.6072 32.461 86.7883 27.2565 81.303C22.0519 75.8178 18.5907 68.9126 17.3101 61.4604C16.0296 54.0082 16.9873 46.3436 20.0623 39.4357C22.1019 34.8441 25.0271 30.6998 28.6704 27.2402C32.3138 23.7806 36.6039 21.0735 41.2948 19.274C45.9858 17.4745 50.9854 16.6179 56.0079 16.7532C61.0303 16.8886 65.9768 18.0132 70.564 20.0627Z" stroke="#A1897E" stroke-width="1.47219" stroke-miterlimit="22.93"/>
<path d="M47.6227 23.2715L49.5721 24.1413L46.5732 30.9188L45.2837 30.349L47.7727 24.771L46.3633 24.1413L47.6528 23.2715H47.6227ZM55.4499 26.7503L56.7095 27.3201L56.1697 32.7481L59.8884 28.7296L61.1178 29.2694L59.2585 36.5867L57.999 36.0469L59.1687 31.4286L55.8397 35.0572L54.7001 34.5475L55.1801 29.6292L52.511 33.5878L51.2515 33.018L55.4499 26.7503ZM63.2171 30.199L64.5066 30.7988L61.5077 37.5764L60.2182 37.0066L63.2171 30.199ZM71.7041 35.4172L70.4146 35.867C70.2923 35.4517 70.0815 35.0677 69.7968 34.7416C69.5121 34.4155 69.16 34.1549 68.765 33.9777C68.4573 33.8448 68.1257 33.7762 67.7905 33.7762C67.4553 33.7762 67.1236 33.8448 66.8158 33.9777C66.5021 34.0961 66.2155 34.2767 65.9733 34.5086C65.7311 34.7405 65.5382 35.0189 65.4063 35.3272C65.2232 35.7525 65.1412 36.2143 65.1665 36.6767C65.2233 37.1104 65.3882 37.5229 65.6462 37.8762C65.9299 38.2423 66.3011 38.5311 66.7258 38.7159C67.077 38.8658 67.4536 38.9473 67.8354 38.9559C68.3098 38.9421 68.7776 38.8404 69.2149 38.656L69.6648 39.9455C69.0772 40.198 68.4449 40.3306 67.8053 40.3353C67.2239 40.3284 66.651 40.1954 66.126 39.9455C65.642 39.7508 65.2033 39.4589 64.8368 39.0877C64.4704 38.7164 64.184 38.2739 63.9956 37.7874C63.8072 37.301 63.7209 36.781 63.7417 36.2598C63.7625 35.7386 63.8901 35.2273 64.1167 34.7574C64.3684 34.1449 64.7791 33.6107 65.3063 33.21C65.8335 32.8093 66.4581 32.5567 67.1157 32.4782C67.8224 32.4061 68.5357 32.5198 69.1849 32.8081C69.7392 33.0707 70.238 33.4372 70.6543 33.8877C71.0679 34.3561 71.3748 34.9086 71.554 35.5071L71.7041 35.4172ZM70.3245 41.415L73.3234 34.6374L74.6429 35.2072L72.1238 40.8452L74.403 41.8648L76.9221 36.2269L78.2417 36.7967L75.7225 42.4346L77.1021 43.0644L76.1424 45.2536L74.9129 44.7137L75.3627 43.6941L70.2945 41.415H70.3245ZM80.4608 37.7863L84.1795 39.4357L83.6097 40.7252L81.2106 39.6456L80.6408 40.8751L83.0699 41.9548L82.5301 43.1843L80.101 42.1047L79.2912 43.9041L81.7203 44.9836L81.1505 46.2432L77.4319 44.5938L80.4308 37.7863H80.4608Z" fill="#A1897E"/>
<path fill-rule="evenodd" clip-rule="evenodd" d="M9.59553 57.9389C9.91506 58.0889 10.1632 58.3582 10.2865 58.6889C10.4098 59.0197 10.3987 59.3856 10.2554 59.7082C10.1447 59.943 9.967 60.14 9.74489 60.2744C9.52277 60.4089 9.26609 60.4748 9.00669 60.464C8.74729 60.4531 8.49673 60.366 8.28662 60.2135C8.0765 60.061 7.91607 59.8499 7.82536 59.6066C7.73465 59.3634 7.7177 59.0987 7.77667 58.8459C7.83564 58.5931 7.96787 58.3633 8.15684 58.1852C8.34581 58.0072 8.58312 57.8889 8.83903 57.845C9.09493 57.8012 9.35809 57.8338 9.59553 57.9389Z" fill="#A1897E"/>
<path d="M11.0064 56.2595H6.26807V55.6298H11.0064V56.2595ZM11.0064 52.6609L6.41798 52.151V51.5213L8.36734 51.7012L8.5771 49.2421L6.62792 49.0922V48.4623L11.3662 48.8522V49.4819L9.1469 49.302L8.93714 51.7311L11.1563 51.9111V52.5409L11.0064 52.6609ZM11.4261 48.4623L7.07765 45.8234V45.1336L12.086 44.0839L11.936 44.8037L10.4366 45.0736L10.0766 47.0229L11.3961 47.8026V48.4623H11.4261ZM9.74672 46.753L10.0467 45.1636L8.66716 45.4335L7.61761 45.5834L8.48723 46.0033L9.74672 46.753ZM7.85739 42.0747L8.06734 41.4749L12.0259 42.8245L12.8357 40.4852L8.8771 39.1358L9.05703 38.5359L13.0156 39.8855V39.4656L14.7849 40.0654L14.6049 40.6052L13.3755 40.1854L12.2058 43.5742L7.70748 42.0747H7.85739ZM13.8552 38.8659L9.4469 37.1265L9.68687 36.5567L14.0952 38.2961L13.8552 38.8659ZM12.3257 36.3468C12.0128 36.2167 11.7294 36.0249 11.4924 35.7827C11.2553 35.5405 11.0697 35.253 10.9464 34.9373C10.8515 34.6512 10.8185 34.3481 10.8495 34.0483C10.8805 33.7484 10.9749 33.4586 11.1263 33.1979C11.303 32.8177 11.5838 32.4954 11.936 32.2682C12.2795 32.0615 12.6748 31.9574 13.0755 31.9683C13.5182 31.9829 13.9522 32.0953 14.3463 32.2975C14.7404 32.4997 15.0847 32.7868 15.3547 33.1379C15.5858 33.4753 15.7206 33.8693 15.7445 34.2775C15.7442 34.6732 15.6519 35.0634 15.4747 35.4171C15.2944 35.8042 15.0017 36.1281 14.635 36.3468C14.2959 36.5638 13.8973 36.6686 13.4954 36.6466C13.0856 36.6536 12.6815 36.5501 12.3257 36.3468ZM12.6257 35.777C12.8353 35.903 13.0677 35.9863 13.3096 36.0224C13.5514 36.0584 13.7979 36.0463 14.0351 35.9869C14.2441 35.9293 14.4382 35.8271 14.6038 35.6873C14.7695 35.5475 14.9029 35.3735 14.9948 35.1772C15.0824 34.9788 15.1277 34.7643 15.1277 34.5474C15.1277 34.3306 15.0824 34.1161 14.9948 33.9177C14.7944 33.4449 14.4181 33.0685 13.9453 32.8681C13.6438 32.6952 13.3031 32.6023 12.9556 32.5982C12.6636 32.5651 12.3688 32.6283 12.116 32.7781C11.8071 32.9721 11.5697 33.2615 11.4398 33.6023C11.31 33.9432 11.2946 34.3171 11.3961 34.6674C11.502 34.9193 11.6576 35.1473 11.8533 35.3379C12.0491 35.5285 12.2811 35.6778 12.5357 35.777H12.6257ZM16.8541 32.7781L12.8657 30.199L13.2256 29.6592L14.8449 30.7388L16.1944 28.6696L14.5451 27.62L14.8749 27.0802L18.8635 29.6592L18.5335 30.1691L16.6442 28.9694L15.3246 31.0387L17.1841 32.2382L16.8541 32.7781ZM19.1633 29.2094L16.6143 24.831L17.034 24.2911L21.9523 25.7607L21.5026 26.3004L20.033 25.8506L18.7735 27.41L19.5832 28.6995L19.1633 29.2094ZM18.5037 26.9302L19.5232 25.6707L18.4136 25.1608L17.4239 24.801C17.6307 25.0413 17.8116 25.3026 17.9637 25.5807L18.7434 26.8402L18.5037 26.9302ZM19.2832 21.742L21.3525 19.6128L24.7112 22.9417L24.2915 23.3915L21.2926 20.3926L20.093 21.6221L21.8624 23.3315C22.1229 23.5824 22.3635 23.8531 22.5821 24.1412C22.6961 24.3097 22.7586 24.5077 22.7621 24.711C22.7552 24.8144 22.7277 24.9154 22.6813 25.0081C22.635 25.1008 22.5707 25.1833 22.4921 25.2508C22.3762 25.3808 22.2327 25.4832 22.0722 25.5507L21.7724 25.1009H22.0123C22.0541 24.9949 22.0541 24.877 22.0123 24.771C21.9038 24.5348 21.739 24.3289 21.5324 24.1712L19.1633 21.8321L19.2832 21.742ZM22.4921 18.5932L22.972 18.1734L24.2615 19.7328L25.1311 19.0131C25.419 18.7508 25.7551 18.5471 26.1208 18.4133C26.3544 18.3355 26.6069 18.3355 26.8405 18.4133C27.051 18.5088 27.2359 18.6527 27.3803 18.8332C27.6082 19.0995 27.7261 19.4426 27.7102 19.7928C27.6084 20.2915 27.3185 20.7318 26.9006 21.0223L25.521 22.1619L22.5221 18.5333L22.4921 18.5932ZM25.6709 21.4122L26.5407 20.6625C26.9006 20.3926 27.0805 20.1227 27.0805 19.9127C27.0832 19.6944 27.0088 19.482 26.8706 19.3129C26.7599 19.1696 26.5992 19.0732 26.4207 19.043C26.2659 18.9856 26.0957 18.9856 25.9409 19.043C25.6944 19.1893 25.4634 19.3602 25.2512 19.5529L24.6214 20.0927L25.6709 21.3523V21.4122ZM28.8798 19.4929L26.2407 15.5643L26.7507 15.2044L27.8603 16.8239L29.8995 15.4444L28.7899 13.825L29.3297 13.495L31.9687 17.4237L31.4588 17.7535L30.1993 15.9242L28.1601 17.2737L29.4196 19.133L28.8798 19.4929ZM30.6492 12.7154L31.159 12.4455L32.9284 15.7742L33.3781 11.2759L33.9179 10.976L36.1671 15.1445L35.6573 15.4144L33.8879 12.1156L33.4382 16.6139L32.8984 16.9138L30.6492 12.7154ZM35.5074 10.2262L36.0472 10.0463L37.3067 13.5551L38.4163 9.17669L38.9861 8.96674L40.6056 13.4351L40.0657 13.615L38.8062 10.1063L37.6966 14.4847L37.1268 14.6947L35.5074 10.2262ZM37.3367 8.36693L37.7266 8.21702C37.7736 8.32591 37.798 8.44324 37.798 8.56186C37.798 8.68048 37.7736 8.79781 37.7266 8.90671C37.5927 9.09898 37.4028 9.24537 37.1828 9.32587C36.9628 9.40636 36.7235 9.41712 36.4971 9.35662C36.2824 9.26285 36.111 9.09147 36.0172 8.87678H36.3771C36.4422 8.98853 36.5353 9.0815 36.647 9.14667C36.7802 9.17431 36.9185 9.1636 37.0459 9.11583C37.1733 9.06806 37.2845 8.98519 37.3667 8.87678C37.4134 8.76137 37.4134 8.63234 37.3667 8.51693L37.3367 8.36693ZM42.1949 8.00707L42.7948 7.82714L43.3345 9.86638C43.5475 9.8229 43.7385 9.70623 43.8743 9.53654C44.0006 9.25097 44.0816 8.94737 44.1143 8.63682C44.0818 8.398 44.0818 8.15592 44.1143 7.91711C44.1616 7.76229 44.2558 7.62602 44.3841 7.52723C44.511 7.40351 44.6651 7.3111 44.834 7.25734H45.2239V7.79713H45.4038C45.2239 7.79713 45.0739 7.79718 45.0139 8.03709C44.9133 8.25444 44.8524 8.48798 44.834 8.72678C44.8169 9.0173 44.7457 9.30207 44.6241 9.56647C44.5489 9.69664 44.4467 9.80918 44.3242 9.8964C44.7389 9.97606 45.1171 10.1862 45.4038 10.4961L46.7533 11.7857L45.9736 11.9956L44.894 10.946C44.6848 10.7203 44.4421 10.5281 44.1743 10.3762C44.0808 10.3311 43.9782 10.3076 43.8743 10.3076C43.7705 10.3076 43.668 10.3311 43.5745 10.3762L44.1443 12.5355H43.5145L42.3449 7.94713L42.1949 8.00707ZM46.6034 9.38654C46.4943 8.71666 46.6443 8.0304 47.0231 7.46729C47.2118 7.23055 47.4482 7.03607 47.7169 6.89657C47.9855 6.75708 48.2805 6.67564 48.5826 6.65753C49.0013 6.59391 49.4293 6.65664 49.8121 6.83754C50.1829 7.00218 50.4963 7.27359 50.7119 7.6172C50.9376 7.99804 51.0761 8.42416 51.1175 8.86488C51.159 9.30561 51.1023 9.75003 50.9517 10.1663C50.8187 10.5459 50.5662 10.8721 50.232 11.0959C49.9078 11.3354 49.5239 11.4807 49.1224 11.5158C48.7039 11.5663 48.2795 11.5042 47.8929 11.3359C47.5159 11.1666 47.2013 10.8834 46.9933 10.5261C46.7752 10.1824 46.6416 9.79185 46.6034 9.38654ZM47.2631 9.38654C47.2702 9.63096 47.3271 9.87136 47.4302 10.0931C47.5333 10.3148 47.6806 10.5132 47.8629 10.6761C48.0216 10.8245 48.2124 10.9341 48.4205 10.9966C48.6285 11.059 48.8482 11.0725 49.0624 11.036C49.2803 11.0247 49.493 10.9649 49.6849 10.8612C49.8768 10.7575 50.0433 10.6123 50.1721 10.4362C50.4373 9.99509 50.5431 9.47645 50.472 8.96674C50.4267 8.63226 50.3254 8.3078 50.1721 8.00707C50.0158 7.73931 49.787 7.52106 49.5123 7.37733C49.2296 7.28565 48.9253 7.28565 48.6427 7.37733C48.2223 7.41915 47.8347 7.62364 47.5629 7.94713C47.4096 8.17304 47.3041 8.42782 47.2525 8.69594C47.2009 8.96406 47.2045 9.23986 47.2631 9.50653V9.38654ZM52.1814 11.1559V6.41765H52.811V8.36693H55.2701V6.41765H55.9V11.1559H55.2701V8.93673H52.811V11.1559H52.1814ZM57.3694 6.41765H57.9993L57.8193 8.48691C57.9134 8.53004 58.0156 8.55234 58.1191 8.55234C58.2227 8.55234 58.3251 8.53004 58.4191 8.48691C58.637 8.27314 58.8102 8.01832 58.9289 7.73718L59.3188 7.10743C59.4293 6.98443 59.5614 6.88276 59.7087 6.80753C59.887 6.77349 60.0701 6.77349 60.2484 6.80753C60.4883 6.80753 60.6083 6.80753 60.6083 6.80753V7.16738H60.3983C60.3273 7.13685 60.2507 7.12107 60.1734 7.12107C60.0961 7.12107 60.0195 7.13685 59.9484 7.16738C59.7909 7.34799 59.6597 7.54994 59.5586 7.7672C59.4592 8.03524 59.3062 8.28013 59.1088 8.48691C58.9855 8.58602 58.8423 8.65762 58.6889 8.69685C59.068 8.90028 59.3648 9.22882 59.5287 9.62651L60.3683 11.2759H59.5886L58.8989 9.92642C58.7652 9.65126 58.6045 9.39004 58.4191 9.14667C58.2635 9.0019 58.0617 8.91686 57.8493 8.90671L57.6694 11.126H57.0396L57.4595 6.38763L57.3694 6.41765ZM61.2381 6.74749H61.8678L62.8575 9.8964L64.7168 7.25734H65.3166L62.9175 10.5562C62.7207 10.8526 62.489 11.1244 62.2276 11.3658C62.1238 11.4121 62.0115 11.4361 61.8978 11.4361C61.7841 11.4361 61.6718 11.4121 61.568 11.3658C61.3779 11.3255 61.1956 11.2546 61.0282 11.1559V10.6161C61.1562 10.7483 61.3254 10.8329 61.5079 10.8561C61.6441 10.9018 61.7916 10.9018 61.9278 10.8561C62.1284 10.6924 62.2919 10.4879 62.4076 10.2563L61.1481 6.4776L61.2381 6.74749ZM65.0166 12.2656L66.3061 7.70716L68.0155 8.187L68.7054 8.42696C68.8977 8.52475 69.0704 8.6568 69.2151 8.81674C69.3308 8.97858 69.4125 9.1623 69.4551 9.35662C69.4875 9.64994 69.4404 9.94651 69.3191 10.2155C69.1978 10.4845 69.0065 10.7161 68.7652 10.886C68.5332 10.9858 68.2832 11.0374 68.0305 11.0374C67.7779 11.0374 67.5279 10.9858 67.2958 10.886L66.1262 10.5562L65.6164 12.4155L65.0166 12.2355V12.2656ZM66.2763 10.0463L67.4757 10.3762C67.7559 10.4822 68.0653 10.4822 68.3455 10.3762C68.4548 10.3281 68.5503 10.2536 68.6236 10.1593C68.6969 10.0651 68.7455 9.95419 68.7652 9.83645C68.8246 9.66142 68.8246 9.47161 68.7652 9.29658C68.71 9.13768 68.6048 9.0009 68.4654 8.90671L67.9256 8.72678L66.756 8.39694L66.2763 10.0164V10.0463ZM72.9338 13.0452L73.4435 13.4351C73.181 13.8217 72.8033 14.1155 72.364 14.2748C71.9363 14.421 71.4721 14.421 71.0444 14.2748C70.632 14.1268 70.2687 13.8672 69.9949 13.5251C69.7751 13.1971 69.6601 12.8102 69.6651 12.4155C69.6427 11.9824 69.7249 11.5504 69.9048 11.1559C70.0501 10.7326 70.2973 10.3516 70.6245 10.0463C70.919 9.78565 71.2845 9.61859 71.6743 9.56647C72.0705 9.51299 72.4739 9.56476 72.8439 9.71647C73.2533 9.85549 73.6025 10.1306 73.8334 10.4961C74.0484 10.8572 74.143 11.2774 74.1034 11.6958H73.4735C73.4982 11.385 73.4359 11.0734 73.2936 10.796C73.1347 10.5657 72.9021 10.3964 72.6339 10.3162C72.3322 10.2156 72.006 10.2156 71.7043 10.3162C71.4123 10.3983 71.1514 10.5653 70.9546 10.796C70.7761 11.0384 70.6252 11.3 70.5047 11.5758C70.362 11.9083 70.2807 12.2639 70.2647 12.6254C70.2581 12.9276 70.3532 13.2233 70.5347 13.4651C70.7042 13.6918 70.9322 13.868 71.1943 13.9749C71.5056 14.08 71.8428 14.08 72.154 13.9749C72.4794 13.8467 72.7535 13.6148 72.9338 13.3151V13.0452ZM78.9316 16.2241L79.3815 16.674C79.0641 17.0242 78.6443 17.2655 78.1819 17.3637C77.7299 17.4225 77.272 17.316 76.8923 17.0637C76.5032 16.8723 76.1796 16.5697 75.9627 16.1941C75.8084 15.8247 75.7467 15.4232 75.7828 15.0245C75.8546 14.5945 75.9964 14.1791 76.2027 13.7949C76.4278 13.4124 76.7351 13.0847 77.1023 12.8354C77.4294 12.6138 77.8169 12.4986 78.2119 12.5054C78.6149 12.5084 79.0092 12.6226 79.3515 12.8354C79.7273 13.0383 80.031 13.3525 80.2211 13.735C80.3582 14.1334 80.3582 14.5662 80.2211 14.9646L79.6213 14.7846C79.7134 14.4918 79.7134 14.1777 79.6213 13.8849C79.4799 13.6164 79.2619 13.3961 78.9949 13.2519C78.7279 13.1077 78.4239 13.0462 78.1218 13.0752C77.8343 13.1027 77.5622 13.2178 77.3423 13.4051C77.1023 13.6086 76.8994 13.8522 76.7424 14.1249C76.5483 14.4338 76.4254 14.7821 76.3826 15.1445C76.2912 15.4169 76.2912 15.7117 76.3826 15.9842C76.5177 16.2398 76.7268 16.4489 76.9824 16.584C77.2478 16.7578 77.5702 16.8223 77.882 16.7639C78.2344 16.691 78.5515 16.5006 78.7817 16.2241H78.9316ZM80.3412 16.3741C80.7055 15.8047 81.2743 15.3967 81.9305 15.2345C82.229 15.1859 82.5342 15.1981 82.8279 15.2702C83.1216 15.3424 83.3978 15.4729 83.6399 15.6543C83.9866 15.8926 84.2573 16.2258 84.4196 16.6139C84.5413 16.9943 84.5413 17.4032 84.4196 17.7835C84.3468 18.2181 84.1722 18.6291 83.9099 18.9831C83.6641 19.3566 83.3222 19.6571 82.9202 19.8528C82.5645 20.051 82.1529 20.1248 81.7506 20.0627C81.348 20.0323 80.9628 19.8866 80.641 19.6429C80.3007 19.3976 80.0316 19.0664 79.8612 18.6832C79.7428 18.2921 79.7428 17.8747 79.8612 17.4836C79.9442 17.085 80.1076 16.7075 80.3412 16.3741ZM80.8509 16.7639C80.5495 17.1455 80.4096 17.6299 80.4611 18.1134C80.4802 18.3286 80.5466 18.5369 80.6554 18.7235C80.7643 18.9101 80.913 19.0704 81.0909 19.193C81.265 19.3227 81.4646 19.4138 81.6766 19.4604C81.8886 19.5069 82.108 19.5078 82.3204 19.4629C82.568 19.4047 82.8016 19.2978 83.0075 19.1485C83.2134 18.9992 83.3877 18.8104 83.52 18.5932C83.741 18.323 83.895 18.0045 83.9697 17.6636C84.0594 17.3806 84.0594 17.0768 83.9697 16.7939C83.8516 16.5217 83.6658 16.2843 83.4299 16.1042C83.261 15.975 83.0675 15.8818 82.8612 15.8302C82.655 15.7787 82.4403 15.7698 82.2305 15.8043C81.9624 15.8701 81.7101 15.989 81.4886 16.1538C81.2672 16.3186 81.0809 16.526 80.9408 16.7639H80.8509ZM86.3988 17.9335L86.8788 18.3533L85.4992 19.9127C85.6504 20.0685 85.8527 20.1643 86.069 20.1826C86.363 20.1279 86.6466 20.0266 86.9088 19.8827L87.5985 19.6128C87.7527 19.5526 87.9239 19.5526 88.0782 19.6128C88.2588 19.6422 88.4263 19.7259 88.5581 19.8528L88.858 20.0927L88.4981 20.5126C88.3735 20.4024 88.2144 20.3388 88.0482 20.3326C87.8157 20.3727 87.5924 20.4539 87.3885 20.5725C87.1427 20.7283 86.8668 20.8305 86.5788 20.8724H86.129C86.2815 21.2681 86.2815 21.7063 86.129 22.102L85.799 23.9313L85.2294 23.4215L85.4692 21.9221C85.5031 21.6231 85.5031 21.3213 85.4692 21.0223C85.4445 20.8098 85.3367 20.6158 85.1694 20.4825L83.6999 22.1319L83.22 21.7121L86.2189 18.1734L86.3988 17.9335ZM86.1591 24.1712L89.4578 20.7825L89.9077 21.2323L86.6088 24.6211L86.1591 24.1712ZM87.3585 25.4007L90.9873 22.4018L92.1269 23.7513C92.3365 23.9719 92.4906 24.2392 92.5766 24.5311C92.6403 24.7443 92.6402 24.9716 92.5762 25.1847C92.5123 25.3979 92.3873 25.5877 92.2167 25.7306C92.0654 25.8637 91.8771 25.9474 91.6769 25.9705C91.4609 26.0291 91.2333 26.0291 91.0173 25.9705C91.1041 26.2232 91.1041 26.4976 91.0173 26.7503C90.9579 27.004 90.8087 27.2276 90.5974 27.38C90.4351 27.5255 90.2394 27.6285 90.0276 27.6799C89.8504 27.7243 89.665 27.7243 89.4878 27.6799C89.3026 27.6376 89.1287 27.5558 88.978 27.44C88.7653 27.2858 88.5737 27.1043 88.4082 26.9002L87.2686 25.5207L87.3585 25.4007ZM89.8777 24.1112L90.5373 24.8909C90.646 25.0673 90.7888 25.2202 90.9572 25.3408C91.0842 25.38 91.2201 25.38 91.3471 25.3408C91.504 25.3327 91.6529 25.2689 91.767 25.1608C91.8889 25.0749 91.9744 24.9466 92.0068 24.801C92.0502 24.6747 92.0502 24.5374 92.0068 24.4111C91.9156 24.1885 91.7833 23.985 91.6169 23.8113L90.9873 23.0916L89.9077 23.9912L89.8777 24.1112ZM88.1683 25.5207L88.948 26.4204L89.2178 26.7503L89.5477 26.9302C89.6658 26.9594 89.7895 26.9594 89.9077 26.9302C90.0499 26.9014 90.1833 26.8398 90.2974 26.7503C90.4154 26.6358 90.4987 26.4903 90.5373 26.3305C90.5957 26.1862 90.5957 26.0248 90.5373 25.8805C90.4258 25.6693 90.2953 25.4686 90.1475 25.2808L89.4278 24.4411L88.1683 25.4907V25.5207ZM95.3057 27.8598L97.2549 31.0687L93.1764 33.4978L92.8466 32.958L96.4453 30.7988L95.1558 28.6995L91.5871 30.8587L91.2571 30.319L95.3057 27.8598ZM93.6862 34.3974L97.9748 32.3582L98.7543 33.9776L99.0243 34.6674C99.0683 34.8649 99.0683 35.0696 99.0243 35.2671C99.0074 35.469 98.9228 35.6591 98.7844 35.8069C98.6583 35.9929 98.4813 36.1388 98.2746 36.2268C98.0988 36.3002 97.9103 36.338 97.7198 36.338C97.5293 36.338 97.3408 36.3002 97.165 36.2268C96.9401 36.1214 96.7391 35.9713 96.5742 35.7857C96.4092 35.6001 96.2836 35.3828 96.2053 35.1472L95.6656 34.0676L93.9261 34.8773L93.6563 34.3075L93.6862 34.3974ZM96.2053 33.9177L96.7451 34.9973C96.8442 35.2892 97.047 35.5346 97.3149 35.687C97.4228 35.7378 97.5405 35.7641 97.6598 35.7641C97.779 35.7641 97.8967 35.7378 98.0046 35.687C98.1678 35.609 98.3037 35.4836 98.3945 35.3272C98.4547 35.1729 98.4547 35.0016 98.3945 34.8473C98.3443 34.6603 98.2739 34.4793 98.1845 34.3075L97.6448 33.1979L96.1153 33.9476L96.2053 33.9177ZM96.7751 41.8047L101.243 40.1854L100.524 38.2061C100.418 37.8953 100.267 37.6021 100.074 37.3364C99.8993 37.1654 99.6789 37.0488 99.4393 37.0009C99.1996 36.953 98.9514 36.9757 98.7245 37.0665C98.426 37.1704 98.1789 37.3852 98.0346 37.6663C97.9241 38.0177 97.9241 38.3945 98.0346 38.7459L97.6748 38.476C97.4392 38.3502 97.1867 38.2593 96.925 38.2061L95.4256 37.8762L95.6956 38.6259L96.8352 38.8659L97.5849 39.0758L98.0046 39.2557L98.2146 39.4956C98.2753 39.6003 98.3255 39.7109 98.3645 39.8255L98.6044 40.4852L96.6252 41.205L96.8352 41.8047H96.7751ZM99.0543 40.3053L98.6044 39.0458C98.521 38.8348 98.4705 38.6123 98.4545 38.386C98.4545 38.2238 98.5071 38.066 98.6044 37.9362C98.6965 37.8141 98.8212 37.7205 98.9643 37.6663C99.0584 37.6232 99.1608 37.6008 99.2643 37.6008C99.3678 37.6008 99.47 37.6232 99.5641 37.6663C99.7867 37.8134 99.947 38.0378 100.014 38.2961L100.524 39.7056L99.3842 40.1554L99.0543 40.3053ZM97.0449 42.7944L101.663 41.6248L101.873 42.5245L98.8744 44.4438L98.2446 44.8337H99.0543L102.533 45.1336L102.743 45.9433L98.1547 47.1129L98.0046 46.5131L101.843 45.5534L97.6448 45.1935V44.6237L101.213 42.3146L97.2849 43.3042L97.135 42.7344L97.0449 42.7944ZM100.554 47.7426C100.888 47.6864 101.229 47.6972 101.559 47.7745C101.888 47.8517 102.199 47.9938 102.473 48.1924C102.71 48.3762 102.907 48.6068 103.052 48.87C103.196 49.1331 103.285 49.423 103.313 49.7219C103.351 50.143 103.279 50.5669 103.103 50.9515C102.938 51.3222 102.667 51.6355 102.323 51.8511C101.953 52.0831 101.53 52.2173 101.094 52.241C100.648 52.2992 100.195 52.2477 99.774 52.0911C99.3993 51.9492 99.0756 51.6985 98.8444 51.3713C98.6181 51.0401 98.4741 50.6597 98.4245 50.2617C98.3834 49.8404 98.4559 49.4159 98.6344 49.0321C98.7991 48.6614 99.0706 48.3482 99.4142 48.1325C99.7638 47.9268 100.151 47.7942 100.554 47.7426ZM100.554 48.4024C100.309 48.4095 100.069 48.4664 99.8473 48.5695C99.6255 48.6726 99.4272 48.8199 99.2643 49.0022C99.1159 49.1609 99.0062 49.3516 98.9438 49.5597C98.8814 49.7678 98.8679 49.9876 98.9044 50.2017C98.9234 50.4178 98.9863 50.6278 99.0895 50.8186C99.1926 51.0094 99.3337 51.1771 99.5041 51.3113C99.9402 51.5888 100.464 51.6956 100.974 51.6112C101.318 51.5693 101.653 51.4678 101.963 51.3113C102.215 51.1452 102.422 50.9183 102.563 50.6516C102.687 50.3901 102.739 50.1001 102.713 49.8119C102.668 49.3772 102.452 48.9781 102.113 48.7023C101.887 48.549 101.632 48.4433 101.364 48.3918C101.096 48.3402 100.82 48.3438 100.554 48.4024ZM103.553 53.2606V56.2595H103.013V53.8304H98.8144V53.2007H103.553V53.2606ZM101.183 56.5294C101.515 56.5364 101.842 56.6089 102.146 56.7427C102.45 56.8765 102.724 57.0691 102.953 57.3091C103.16 57.5388 103.315 57.8103 103.408 58.1052C103.502 58.4001 103.53 58.7116 103.493 59.0185C103.463 59.4304 103.317 59.8255 103.073 60.1581C102.842 60.4854 102.518 60.736 102.143 60.8779C101.732 61.0315 101.291 61.093 100.854 61.0578C100.409 61.0292 99.9772 60.8956 99.5941 60.6679C99.2505 60.4523 98.979 60.139 98.8144 59.7683C98.6436 59.4034 98.5712 59.0002 98.6044 58.5987C98.6301 58.1768 98.7758 57.771 99.0243 57.4291C99.2674 57.101 99.6009 56.8508 99.984 56.7093C100.365 56.5601 100.775 56.4986 101.183 56.5294ZM101.183 57.1892C100.689 57.1141 100.184 57.2323 99.774 57.5191C99.6085 57.6575 99.4723 57.8275 99.3734 58.0192C99.2745 58.211 99.2148 58.4207 99.198 58.6358C99.1813 58.8509 99.2078 59.0672 99.2758 59.272C99.3438 59.4767 99.452 59.6659 99.5941 59.8282C99.7733 60.0119 99.9881 60.1572 100.225 60.2552C100.462 60.3531 100.717 60.4017 100.974 60.398C101.311 60.4614 101.656 60.4614 101.993 60.398C102.271 60.2893 102.518 60.1143 102.713 59.8882C102.878 59.6362 102.981 59.3483 103.013 59.0485C103.051 58.6266 102.921 58.2067 102.653 57.8789C102.463 57.683 102.234 57.5285 101.981 57.4253C101.728 57.3221 101.457 57.2723 101.183 57.2791V57.1892ZM98.1845 63.4569L102.803 64.5065L102.383 66.2459C102.332 66.5362 102.22 66.8123 102.053 67.0556C101.918 67.245 101.73 67.3908 101.513 67.4754C101.297 67.534 101.07 67.534 100.854 67.4754C100.655 67.4358 100.475 67.3301 100.344 67.1756C100.177 67.0246 100.062 66.8254 100.014 66.6058C99.8962 66.8491 99.6936 67.0411 99.4442 67.1456C99.2028 67.2379 98.9359 67.2379 98.6945 67.1456C98.4824 67.1126 98.2845 67.0188 98.1247 66.8757C97.9731 66.7541 97.8502 66.6005 97.7648 66.4259C97.7308 66.2475 97.7308 66.0643 97.7648 65.886C97.7403 65.6267 97.7403 65.3657 97.7648 65.1063L98.1845 63.3669V63.4569ZM100.704 64.6864L100.464 65.6761C100.426 65.8742 100.426 66.0777 100.464 66.2759C100.418 66.4018 100.418 66.5398 100.464 66.6657C100.557 66.7846 100.687 66.8695 100.833 66.9074C100.979 66.9454 101.134 66.9342 101.273 66.8757C101.405 66.8279 101.512 66.7311 101.573 66.6058C101.687 66.3889 101.768 66.1565 101.813 65.916L102.023 65.0164L100.614 64.6864H100.704ZM98.5744 64.1767L98.3046 65.3462C98.2811 65.4852 98.2811 65.6271 98.3046 65.7661C98.2728 65.8839 98.2728 66.0081 98.3046 66.1259C98.352 66.2471 98.4289 66.3545 98.5285 66.4383C98.628 66.5221 98.7469 66.5797 98.8744 66.6058C99.0287 66.666 99.1999 66.666 99.3542 66.6058C99.5054 66.5509 99.6327 66.4448 99.714 66.3059C99.8315 66.1015 99.9127 65.8782 99.954 65.6461L100.194 64.5965L98.6044 64.2066L98.5744 64.1767ZM97.075 67.8653L101.573 69.3647L101.363 69.9645L96.865 68.4651L97.075 67.8653ZM100.794 71.6439L99.744 74.3429L95.8455 72.8135L95.6956 73.2033L94.1361 72.6036L94.346 72.0638L95.3655 72.4836L96.5352 69.4847L95.4856 69.0948L95.6956 68.5851L97.2549 69.1848L97.105 69.5147C97.942 70.358 98.971 70.9857 100.104 71.344L100.734 71.584L100.794 71.6439ZM99.4442 73.5333L100.074 72.0038H99.8341L98.3346 71.2841C97.7945 71.0386 97.3059 70.6925 96.895 70.2645L96.0854 72.3037L99.4442 73.6232V73.5333ZM97.7648 78.3915L95.9055 77.4318C95.8296 77.6349 95.8296 77.8586 95.9055 78.0616C96.0167 78.3555 96.1906 78.6216 96.4153 78.8413C96.5756 79.0153 96.7165 79.2064 96.8352 79.4111C96.9161 79.5596 96.9671 79.7227 96.9851 79.8909C97.0161 80.0595 97.0161 80.2323 96.9851 80.4008C96.8995 80.5062 96.8381 80.629 96.8052 80.7606L96.2952 80.4907C96.3479 80.3454 96.3479 80.1862 96.2952 80.0408C96.1921 79.8247 96.0612 79.6231 95.9055 79.4411C95.7076 79.263 95.5447 79.0494 95.4256 78.8114C95.3785 78.6345 95.3785 78.4483 95.4256 78.2715C95.1007 78.5507 94.6842 78.7002 94.256 78.6914L92.3967 78.8413L92.7565 78.1516H94.256C94.5601 78.1314 94.8616 78.0811 95.1558 78.0016C95.2573 77.9609 95.3494 77.9 95.4267 77.8227C95.504 77.7454 95.5648 77.6533 95.6055 77.5518L93.6263 76.5322L93.9261 75.9624L95.9055 76.982C95.9652 76.7967 95.9652 76.5974 95.9055 76.4122C95.8437 76.12 95.7209 75.8442 95.5455 75.6025L94.7659 74.313L95.0958 73.6232L96.0554 75.2126C96.3176 75.5552 96.4456 75.9818 96.4153 76.4122C96.5358 76.2951 96.6786 76.2034 96.8352 76.1423C97.1142 76.1108 97.3958 76.1108 97.6748 76.1423H98.3945C98.5324 76.0644 98.6466 75.9504 98.7245 75.8125V75.5725L99.2042 75.8125V76.1423C99.1266 76.3136 99.0018 76.4593 98.8444 76.5622C98.7123 76.6596 98.5573 76.7216 98.3945 76.7421H97.6448C97.3472 76.6888 97.0426 76.6888 96.7451 76.7421C96.7451 76.7421 96.4451 76.952 96.2952 77.2219L98.1547 78.1815L97.8547 78.7513L97.7648 78.3915ZM95.7554 81.8103L95.3956 82.2601L92.3967 80.0709L93.9562 84.2993L93.5963 84.8092L89.7576 82.0501L90.0876 81.5703L93.0865 83.7595L91.527 79.5311L91.8869 79.0212L95.7554 81.8103ZM89.0979 82.8598L92.6366 85.8587L92.0068 86.5485L88.7681 85.169L88.0782 84.8691L88.4981 85.5589L90.2075 88.5578L89.6377 89.1876L86.099 86.1887L86.4889 85.7088L89.4878 88.3479L87.4486 84.6892L87.8084 84.2693L91.737 85.9188L88.7381 83.2497L89.158 82.7999L89.0979 82.8598ZM88.888 90.0573L88.4082 90.4771L85.4093 89.3975L86.3988 92.3964L85.9491 92.8162L84.7495 88.8877C84.6316 88.5491 84.5609 88.1959 84.5395 87.838C84.5658 87.6176 84.6727 87.4147 84.8395 87.2682C84.9973 87.1488 85.1683 87.0482 85.3493 86.9683L85.7392 87.3582C85.5501 87.3887 85.3734 87.4719 85.2294 87.5981C85.1743 87.6474 85.1298 87.7074 85.0989 87.7744C85.0679 87.8415 85.051 87.9142 85.0493 87.988C85.0429 88.2493 85.1051 88.5078 85.2294 88.7377L89.0079 89.9972L88.888 90.0573Z" fill="#A1897E"/>
<path d="M34.3698 80.5507L34.8496 80.7606L34.3999 81.7502C34.3999 81.7502 34.5797 81.7502 34.6396 81.7502C34.767 81.6712 34.8789 81.5696 34.9697 81.4503C35.2096 81.2404 35.3595 81.1205 35.4794 81.1205C35.6541 81.0588 35.8446 81.0588 36.0192 81.1205V81.4503H35.7792L35.5094 81.6903H35.3295C35.3295 81.6903 35.3295 81.6903 35.0896 81.6903C35.183 81.7659 35.2467 81.8722 35.2695 81.9902C35.2876 82.1496 35.2876 82.3105 35.2695 82.47V83.2497L34.6997 83.0098V82.0802C34.7227 81.9815 34.7227 81.8789 34.6997 81.7803C34.6504 81.7688 34.5991 81.7688 34.5498 81.7803L34.0999 82.8299L33.6201 82.62L34.6697 80.2508L34.3698 80.5507ZM36.3791 81.4503L36.829 81.6303L36.1093 83.2197L37.7886 82.0502L38.2384 82.29L37.1888 84.6292L36.7689 84.4492L37.4288 82.8898L35.8093 83.9994L35.3295 83.7895L36.3791 81.4503ZM37.6686 84.8391L38.7183 82.5L39.198 82.7099L38.1485 85.0491L37.6686 84.8391ZM38.5084 82.1401L38.6883 81.7502L39.0782 81.9302L38.8982 82.32L38.5084 82.1401ZM39.198 82.44L39.408 82.1401L39.7979 82.32L39.6179 82.7099L39.2281 82.53L39.198 82.44ZM39.648 82.8898L40.5776 83.3097L40.9975 83.5196L41.2073 83.7295V83.9994C41.2352 84.1076 41.2352 84.2212 41.2073 84.3294C41.163 84.4286 41.09 84.5122 40.9975 84.5692C40.8906 84.6058 40.7744 84.6058 40.6675 84.5692C40.7804 84.6584 40.8554 84.7869 40.8774 84.9291C40.9208 85.0554 40.9208 85.1926 40.8774 85.319C40.825 85.4301 40.754 85.5316 40.6675 85.6189L40.3376 85.7688C40.2193 85.7968 40.0961 85.7968 39.9778 85.7688L39.408 85.5289L38.5982 85.169L39.648 82.7999V82.8898ZM39.9478 83.4897L39.7078 84.0595H40.0078L40.3677 84.2094H40.6076C40.6424 84.1975 40.6741 84.1779 40.7001 84.1519C40.7261 84.1259 40.7457 84.0943 40.7575 84.0595C40.7716 84.0263 40.7788 83.9905 40.7788 83.9545C40.7788 83.9184 40.7716 83.8827 40.7575 83.8495C40.776 83.8012 40.776 83.7478 40.7575 83.6995L40.3376 83.4897H40.0677H39.9478ZM39.5279 84.4492L39.408 85.139L39.8279 85.319H40.1877H40.3977C40.4335 85.3006 40.4651 85.2752 40.4908 85.2443C40.5166 85.2134 40.5359 85.1775 40.5476 85.139C40.5616 85.0799 40.5616 85.0183 40.5476 84.9591C40.5589 84.8997 40.5589 84.8386 40.5476 84.7792L40.1277 84.5392L39.7378 84.3893L39.5279 84.4492ZM43.5165 86.9384L43.3065 87.3582L41.7172 86.6385C41.8048 86.49 41.9286 86.3662 42.0771 86.2786C42.3163 86.1183 42.5795 85.9968 42.8568 85.9188L43.3966 85.7088C43.4891 85.6518 43.5623 85.5681 43.6065 85.4689C43.6276 85.427 43.6386 85.3808 43.6386 85.334C43.6386 85.2871 43.6276 85.2408 43.6065 85.199L43.4266 85.019H43.1566C43.1566 85.019 43.1566 85.0191 42.9167 85.259L42.4069 85.139C42.5194 84.9527 42.687 84.806 42.8866 84.7191C43.0928 84.6631 43.3103 84.6631 43.5165 84.7191C43.7126 84.7996 43.8726 84.9489 43.9664 85.139C44.0112 85.2273 44.0345 85.3249 44.0345 85.4239C44.0345 85.5229 44.0112 85.6205 43.9664 85.7088L43.7564 85.9787C43.6746 86.0715 43.5717 86.1435 43.4564 86.1887L43.0067 86.3686L42.6168 86.5185L43.5165 86.9084V86.9384ZM45.4358 85.4689C45.5407 85.5069 45.634 85.5708 45.7075 85.6547C45.7809 85.7387 45.832 85.8398 45.8557 85.9487C45.9158 86.3089 45.8524 86.6788 45.6758 86.9983C45.553 87.3505 45.322 87.6549 45.0159 87.868C44.9156 87.926 44.8019 87.9565 44.6861 87.9565C44.5703 87.9565 44.4566 87.926 44.3563 87.868C44.2507 87.8228 44.1573 87.7528 44.0843 87.6641C44.0112 87.5755 43.9606 87.4705 43.9364 87.3582C43.8943 86.995 43.9678 86.6278 44.1463 86.3086C44.267 85.9633 44.499 85.6679 44.806 85.4689C44.9006 85.4105 45.0098 85.3796 45.121 85.3796C45.2322 85.3796 45.3412 85.4105 45.4358 85.4689ZM45.4358 85.8288H45.2559C45.2559 85.8288 45.2559 85.8288 45.076 85.8288C44.9436 85.9999 44.842 86.1927 44.776 86.3986L44.5362 86.9683C44.5176 87.0573 44.5176 87.1493 44.5362 87.2383C44.5362 87.2383 44.5362 87.2382 44.7461 87.0883C44.8663 86.9097 44.9667 86.7186 45.046 86.5185C45.127 86.3328 45.1971 86.1426 45.2559 85.9487C45.2716 85.8594 45.2716 85.7681 45.2559 85.6788L45.4358 85.8288ZM46.7554 88.8277L46.3054 88.6178L47.0552 86.9084C46.8191 86.9693 46.5715 86.9693 46.3355 86.9084L46.5154 86.4886C46.6741 86.5166 46.8366 86.5166 46.9953 86.4886C47.1642 86.4348 47.3181 86.3423 47.445 86.2186L47.8049 86.3986L46.7554 88.7677V88.8277ZM48.2848 87.2083L48.4648 86.7884L50.0241 87.4782V87.8081C49.7967 87.8946 49.5843 88.016 49.3944 88.168C49.1543 88.3454 48.942 88.5576 48.7646 88.7977C48.5895 88.9932 48.4476 89.2161 48.3447 89.4575L47.895 89.2775C48.0666 88.9361 48.289 88.6226 48.5546 88.3479C48.8201 88.0763 49.1231 87.844 49.4543 87.6581L48.4347 87.2083H48.2848Z" fill="#A1897E"/>
<path d="M12.4151 64.9564V65.5862L9.74599 66.126C9.36917 66.194 8.98321 66.194 8.60639 66.126C8.30666 66.0777 8.03192 65.9298 7.82664 65.7061C7.58444 65.4079 7.41285 65.0588 7.32457 64.6849C7.23628 64.311 7.23365 63.922 7.31688 63.5469C7.41529 63.2555 7.60445 63.0033 7.85666 62.8272C8.20391 62.611 8.59174 62.4681 8.99626 62.4074L11.6653 61.8376V62.4673L8.99626 63.0071C8.69446 63.0685 8.40212 63.1693 8.12664 63.307C7.95697 63.4228 7.83044 63.5916 7.76679 63.7869C7.72067 64.0246 7.72067 64.2689 7.76679 64.5066C7.81943 64.8593 8.00104 65.1799 8.27655 65.4063C8.68404 65.5504 9.12855 65.5504 9.53604 65.4063L12.2051 64.8365L12.4151 64.9564ZM8.15666 67.5355L12.685 66.126L12.865 66.7257L10.6158 67.4455L13.6147 68.9749L13.8845 69.7847L11.4554 68.4651L9.38613 71.2841L9.14617 70.5044L10.9156 68.1652L9.95593 67.6555L8.39644 68.1352L8.21651 67.5355H8.15666ZM9.50621 71.7939L13.8545 69.9646L14.6943 71.8839C14.8236 72.1789 14.9047 72.4928 14.9342 72.8136C14.9433 73.0513 14.8691 73.2846 14.7243 73.4733C14.5787 73.6795 14.3825 73.8448 14.1545 73.9531C13.8535 74.0583 13.5258 74.0583 13.2248 73.9531C12.8872 73.7847 12.6135 73.5111 12.4451 73.1735C12.4682 73.3225 12.4682 73.4742 12.4451 73.6233C12.3508 73.8809 12.2195 74.1233 12.0552 74.343L11.1856 75.6026L10.8856 74.8828L11.5454 73.9232L11.9652 73.2634L12.1451 72.8435V72.5137V72.1838L11.8753 71.524L9.92591 72.3338L9.68613 71.764L9.50621 71.7939ZM12.1751 71.3441L12.7149 72.5736C12.78 72.7952 12.8927 72.9999 13.0449 73.1735C13.1526 73.2949 13.3028 73.3701 13.4646 73.3833C13.6008 73.429 13.7483 73.429 13.8845 73.3833C13.9845 73.3459 14.0745 73.2859 14.1473 73.2079C14.2202 73.1298 14.274 73.0359 14.3044 72.9335C14.3608 72.8113 14.3901 72.6782 14.3901 72.5436C14.3901 72.409 14.3608 72.2761 14.3044 72.1538L13.7346 70.7743L12.2652 71.3741L12.1751 71.3441ZM12.625 75.2726L12.9548 75.7825C12.7648 75.8763 12.6154 76.0362 12.535 76.2323C12.4867 76.4192 12.4867 76.6152 12.535 76.8021C12.56 77.057 12.642 77.3029 12.7749 77.5218C12.862 77.7206 12.9957 77.8956 13.1648 78.0317C13.2879 78.1488 13.4459 78.2225 13.6147 78.2416C13.7509 78.2873 13.8982 78.2873 14.0344 78.2416C14.1474 78.1651 14.2401 78.0621 14.3044 77.9417C14.3519 77.7751 14.3519 77.5985 14.3044 77.4319C14.3044 77.2819 14.3044 77.0121 14.0944 76.5622C13.9978 76.2606 13.9374 75.9484 13.9145 75.6325C13.9114 75.4038 13.9627 75.1776 14.0644 74.9727C14.1753 74.7961 14.3304 74.6514 14.5143 74.5529C14.7218 74.4292 14.9639 74.3766 15.204 74.403C15.4586 74.4322 15.6987 74.5366 15.8937 74.7028C16.1304 74.8898 16.3246 75.1249 16.4635 75.3926C16.617 75.6719 16.7187 75.9767 16.7635 76.2923C16.7929 76.5613 16.7406 76.833 16.6136 77.072C16.4913 77.3092 16.3039 77.5068 16.0736 77.6418L15.7438 77.132C15.8528 77.0609 15.9464 76.9685 16.0185 76.8602C16.0907 76.752 16.1401 76.6302 16.1637 76.5022C16.1886 76.362 16.1854 76.2183 16.1545 76.0794C16.1237 75.9404 16.0657 75.809 15.9838 75.6925C15.8762 75.4131 15.6747 75.1799 15.414 75.0328C15.2314 74.9578 15.0267 74.9578 14.8442 75.0328C14.7704 75.0664 14.705 75.1162 14.6531 75.1785C14.6012 75.2408 14.5641 75.314 14.5444 75.3926C14.4941 75.7206 14.4941 76.0543 14.5444 76.3822C14.6657 76.7316 14.746 77.094 14.7841 77.4619C14.849 77.7076 14.849 77.9659 14.7841 78.2116C14.6624 78.4237 14.4865 78.5996 14.2744 78.7214C14.0408 78.7991 13.7883 78.7991 13.5547 78.7214C13.2786 78.7064 13.0152 78.6011 12.8049 78.4216C12.5461 78.2503 12.3387 78.0119 12.2051 77.7318C12.0145 77.4102 11.8921 77.053 11.8453 76.6821C11.8141 76.3806 11.8769 76.0769 12.0252 75.8125C12.1708 75.5469 12.3894 75.3283 12.655 75.1827L12.625 75.2726ZM13.1948 79.6211L18.1429 78.4815L18.5328 79.0513L15.5339 83.3098L15.1142 82.74L16.0138 81.4804L14.9042 79.801L13.4048 80.1909L13.0449 79.6211H13.1948ZM15.5639 79.6211L16.4635 80.9706L17.2733 79.801L17.9031 78.9914C17.615 79.1167 17.313 79.2073 17.0035 79.2612L15.5639 79.6211ZM15.9237 83.6996L19.5825 80.7007L20.632 81.9602C20.8213 82.1683 20.9827 82.4002 21.112 82.65C21.2314 82.8818 21.2932 83.139 21.2919 83.3998C21.2866 83.7376 21.1935 84.0683 21.0219 84.3593C20.8234 84.6812 20.5696 84.9655 20.2722 85.199C20.0388 85.421 19.7635 85.5943 19.4624 85.7089C19.2246 85.8164 18.9718 85.8872 18.7127 85.9188C18.514 85.9498 18.3118 85.9498 18.1131 85.9188C17.9156 85.8544 17.7321 85.7526 17.5731 85.6189C17.3715 85.4735 17.19 85.3021 17.0333 85.1091L15.9237 83.7895V83.6996ZM16.7635 83.6996L17.3932 84.4793C17.5485 84.6736 17.7303 84.8452 17.9331 84.9892L18.4129 85.1691C18.6309 85.2098 18.8545 85.2098 19.0726 85.1691C19.3641 85.0363 19.6365 84.8648 19.8823 84.6592C20.1926 84.4231 20.4398 84.1142 20.602 83.7596C20.6911 83.4971 20.6911 83.2124 20.602 82.9498C20.49 82.6973 20.3382 82.4645 20.1523 82.2602L19.5225 81.5104L16.7335 83.8196L16.7635 83.6996ZM18.9527 87.2683L22.2814 83.9095L23.5709 85.1391L24.0508 85.6789C24.1836 85.8454 24.2759 86.0404 24.3206 86.2487C24.3646 86.4462 24.3646 86.651 24.3206 86.8485C24.252 87.0664 24.128 87.2627 23.9608 87.4183C23.8349 87.5564 23.6823 87.6674 23.5122 87.7447C23.342 87.8221 23.1581 87.8641 22.9713 87.8681C22.7243 87.8494 22.4842 87.7782 22.2669 87.6593C22.0497 87.5403 21.8603 87.3763 21.7116 87.1783L20.842 86.3386L19.4624 87.7181L19.0127 87.2683H18.9527ZM21.1718 85.9488L22.0416 86.7884C22.1342 86.9124 22.2511 87.0163 22.3852 87.0937C22.5192 87.171 22.6675 87.2202 22.8212 87.2384C22.9401 87.2466 23.0593 87.2264 23.1688 87.1795C23.2783 87.1326 23.3751 87.0602 23.451 86.9684C23.5648 86.8391 23.647 86.6851 23.691 86.5186C23.7543 86.3649 23.7543 86.1924 23.691 86.0387C23.5831 85.871 23.4518 85.7196 23.3011 85.5889L22.4315 84.7192L21.2619 85.9488H21.1718ZM22.1315 90.3572L25.2803 86.8185L26.8698 88.228C27.1169 88.4326 27.3296 88.6756 27.4997 88.9477C27.5881 89.1691 27.5881 89.416 27.4997 89.6374C27.4658 89.8966 27.3501 90.1382 27.1696 90.3272C27.072 90.4481 26.9487 90.5457 26.8087 90.6131C26.6687 90.6806 26.5155 90.716 26.3601 90.717C25.984 90.7214 25.6163 90.6059 25.3103 90.3872C25.3434 90.5252 25.3434 90.6691 25.3103 90.8071C25.3551 91.0751 25.3551 91.3487 25.3103 91.6167L25.0704 93.1462L24.5008 92.6063L24.6807 91.4667C24.7021 91.2073 24.7021 90.9465 24.6807 90.6871C24.7152 90.5391 24.7152 90.3852 24.6807 90.2373C24.6975 90.138 24.6975 90.0366 24.6807 89.9374L24.4407 89.6974L23.9009 89.2176L22.4914 90.777L22.0116 90.3572H22.1315ZM24.3807 88.7978L25.3704 89.6974C25.5323 89.8641 25.7261 89.9967 25.9402 90.0873C26.0847 90.1434 26.243 90.1533 26.3934 90.1157C26.5438 90.0781 26.6787 89.9948 26.7798 89.8773C26.8525 89.8032 26.9067 89.713 26.9379 89.614C26.9692 89.515 26.9767 89.41 26.9597 89.3076C26.9061 89.0351 26.7574 88.7906 26.54 88.6178L25.4304 87.6281L24.3807 88.7978ZM26.9897 91.4368C27.3699 90.8696 27.947 90.4636 28.6092 90.2972C28.9078 90.2487 29.213 90.2609 29.5067 90.333C29.8004 90.4051 30.0764 90.5357 30.3185 90.717C30.6578 90.9633 30.9266 91.2942 31.0982 91.6767C31.216 92.0576 31.216 92.4653 31.0982 92.8463C31.0254 93.2808 30.8507 93.6919 30.5884 94.0458C30.3427 94.4194 30.0008 94.7198 29.5988 94.9156C29.2431 95.1137 28.8317 95.1875 28.4293 95.1254C28.0268 95.0951 27.6414 94.9493 27.3196 94.7056C26.9707 94.4567 26.7003 94.1133 26.54 93.7159C26.4183 93.3356 26.4183 92.9268 26.54 92.5464C26.595 92.1448 26.7495 91.7633 26.9897 91.4368ZM27.5295 91.8267C27.2174 92.2037 27.0667 92.6886 27.1098 93.1761C27.1346 93.3898 27.2033 93.596 27.3117 93.7818C27.4201 93.9676 27.5657 94.129 27.7394 94.2558C27.9189 94.3862 28.1238 94.4775 28.3407 94.524C28.5577 94.5705 28.782 94.5711 28.9991 94.5257C29.2426 94.467 29.4715 94.3597 29.6725 94.2102C29.8735 94.0608 30.0422 93.8722 30.1686 93.656C30.3947 93.3891 30.5495 93.0692 30.6185 92.7263C30.6934 92.4413 30.6934 92.1417 30.6185 91.8566C30.4985 91.5769 30.3007 91.3375 30.0487 91.1669C29.8843 91.0402 29.6959 90.9482 29.4948 90.8967C29.2937 90.8451 29.0841 90.835 28.879 90.867C28.611 90.9329 28.3588 91.0517 28.1374 91.2165C27.9159 91.3813 27.7296 91.5888 27.5895 91.8267H27.5295ZM30.0186 96.355L32.178 92.1565L33.0176 92.5764L32.4778 96.0851C32.4778 96.385 32.4778 96.6249 32.4778 96.8049L33.0476 96.2351L35.5966 93.8359L36.3463 94.2258L34.1572 98.4242L33.6174 98.1543L35.4467 94.6156L32.4478 97.6146L31.968 97.3447L32.5977 93.1462L30.7384 96.7148L30.1986 96.4449L30.0186 96.355ZM37.8758 100.074L41.1146 96.1451L41.7743 96.385L42.0743 101.483L41.4145 101.273V99.7137L39.5251 99.084L38.5655 100.284L37.9358 100.074H37.8758ZM39.7951 98.6642L41.3246 99.174V97.7645V96.7148C41.1798 96.9974 40.9984 97.2596 40.7848 97.4946L39.8552 98.6642H39.7951ZM42.794 100.044H43.3638C43.3163 100.251 43.3163 100.466 43.3638 100.673C43.441 100.862 43.578 101.02 43.7537 101.123C43.9543 101.268 44.177 101.38 44.4134 101.453C44.6323 101.482 44.8543 101.482 45.0732 101.453C45.242 101.434 45.3999 101.36 45.523 101.243C45.6449 101.157 45.7305 101.029 45.7629 100.883C45.8065 100.747 45.8065 100.6 45.7629 100.463C45.6882 100.315 45.5741 100.191 45.4331 100.104L44.6533 99.6838C44.357 99.5545 44.0754 99.3936 43.8136 99.204C43.6549 99.0466 43.5234 98.8643 43.4239 98.6642C43.3793 98.4566 43.3793 98.2419 43.4239 98.0344C43.4832 97.8038 43.6082 97.5955 43.7837 97.4346C43.977 97.2605 44.2165 97.1459 44.4734 97.1047C44.7603 97.0457 45.0561 97.0457 45.343 97.1047C45.6566 97.1736 45.9528 97.3063 46.2128 97.4946C46.4524 97.637 46.6331 97.8604 46.7226 98.1243C46.7827 98.3808 46.7827 98.6476 46.7226 98.9041H46.1228C46.1601 98.6404 46.0958 98.3724 45.9428 98.1543C45.7485 97.9377 45.482 97.7992 45.1931 97.7645C44.9105 97.6728 44.6062 97.6728 44.3235 97.7645C44.2388 97.8073 44.1634 97.8664 44.1017 97.9384C44.0399 98.0105 43.993 98.0941 43.9636 98.1844C43.9034 98.3386 43.9034 98.5099 43.9636 98.6642C44.2145 98.8857 44.4976 99.0677 44.8032 99.204C45.1408 99.3384 45.4626 99.5093 45.7629 99.7137C45.981 99.8723 46.1479 100.091 46.2428 100.344C46.3183 100.567 46.3183 100.81 46.2428 101.033C46.1846 101.28 46.0477 101.501 45.853 101.663C45.6646 101.871 45.4105 102.009 45.1331 102.053C44.826 102.112 44.5105 102.112 44.2034 102.053C43.8472 101.986 43.5097 101.843 43.2139 101.633C42.9602 101.459 42.7706 101.206 42.6741 100.913C42.5682 100.633 42.5682 100.324 42.6741 100.044H42.794ZM46.9626 100.943H47.5324C47.4982 101.152 47.4982 101.365 47.5324 101.573C47.6409 101.741 47.7839 101.884 47.9521 101.993C48.1787 102.108 48.4214 102.189 48.672 102.233C48.8807 102.265 49.0929 102.265 49.3016 102.233C49.4735 102.203 49.6313 102.119 49.7515 101.993C49.8066 101.944 49.8509 101.884 49.8818 101.817C49.9128 101.75 49.9297 101.677 49.9314 101.603C49.9773 101.477 49.9773 101.339 49.9314 101.213C49.8235 101.071 49.6915 100.95 49.5416 100.853L48.7318 100.523C48.4306 100.421 48.1395 100.29 47.8622 100.134C47.6729 100.003 47.5184 99.8279 47.4123 99.6238C47.3175 99.4169 47.2868 99.1864 47.3242 98.9619C47.3617 98.7374 47.4655 98.5293 47.6222 98.3643C47.7829 98.1678 48.0046 98.0306 48.2521 97.9744C48.5488 97.913 48.855 97.913 49.1517 97.9744C49.4656 98.026 49.7693 98.1273 50.0513 98.2743C50.2829 98.4102 50.4709 98.6093 50.5931 98.8484C50.7153 99.0875 50.7667 99.3565 50.7412 99.6238H50.1414C50.1511 99.3627 50.0658 99.1071 49.9014 98.9041C49.6796 98.7009 49.3923 98.584 49.0917 98.5742C48.8204 98.4757 48.5233 98.4757 48.2521 98.5742C48.1654 98.6253 48.0909 98.6947 48.0339 98.7776C47.9769 98.8605 47.9389 98.9549 47.9222 99.0541C47.8942 99.1205 47.8796 99.1918 47.8796 99.2639C47.8796 99.336 47.8942 99.4074 47.9222 99.4739C48.1826 99.6988 48.49 99.8628 48.8219 99.9537C49.1749 100.059 49.5164 100.2 49.8414 100.374C50.0653 100.516 50.2507 100.712 50.3812 100.943C50.4589 101.167 50.4589 101.41 50.3812 101.633C50.3579 101.88 50.2523 102.113 50.0814 102.293C49.9083 102.516 49.6655 102.674 49.3917 102.743C49.0966 102.819 48.7871 102.819 48.492 102.743C48.1213 102.715 47.7619 102.603 47.4423 102.413C47.1784 102.275 46.9674 102.053 46.8425 101.783C46.7003 101.506 46.6479 101.192 46.6926 100.883L46.9626 100.943ZM51.221 100.703C51.2097 100.037 51.4569 99.3922 51.9106 98.9041C52.1267 98.6816 52.3894 98.5097 52.6798 98.4008C52.9702 98.2919 53.281 98.2487 53.59 98.2743C54.0049 98.2884 54.4086 98.4126 54.7596 98.6342C55.1009 98.8525 55.3718 99.165 55.5394 99.5338C55.699 99.9337 55.7706 100.363 55.7493 100.793C55.7541 101.245 55.6404 101.689 55.4195 102.083C55.2447 102.451 54.948 102.748 54.5797 102.923C54.2191 103.108 53.8146 103.191 53.4101 103.163C52.9917 103.171 52.5818 103.045 52.2407 102.803C51.892 102.593 51.6189 102.278 51.4609 101.903C51.2902 101.527 51.2081 101.116 51.221 100.703ZM51.8806 100.703C51.8535 100.95 51.8767 101.199 51.9489 101.436C52.0211 101.673 52.1407 101.893 52.3005 102.083C52.4436 102.246 52.6185 102.378 52.8145 102.471C53.0105 102.564 53.2234 102.615 53.4401 102.623C53.658 102.631 53.8752 102.592 54.0769 102.509C54.2786 102.427 54.4603 102.302 54.6097 102.143C54.7812 101.958 54.9145 101.741 55.002 101.504C55.0895 101.267 55.1294 101.016 55.1195 100.763C55.1259 100.415 55.0648 100.069 54.9396 99.7438C54.8318 99.4643 54.6427 99.2235 54.3969 99.0525C54.151 98.8815 53.8595 98.788 53.56 98.7841C53.1303 98.7662 52.7108 98.9169 52.3906 99.204C52.0314 99.6181 51.8483 100.156 51.8806 100.703ZM56.1991 101.573H56.7689C56.8057 101.778 56.8877 101.973 57.0088 102.143C57.1354 102.309 57.3156 102.425 57.5186 102.473C57.7561 102.521 58.0009 102.521 58.2385 102.473L58.8681 102.323C59.0226 102.246 59.1563 102.132 59.258 101.993C59.3016 101.856 59.3016 101.71 59.258 101.573C59.2914 101.455 59.2914 101.331 59.258 101.213C59.136 101.083 58.9802 100.99 58.8081 100.943L57.9385 100.763C57.6177 100.734 57.3038 100.653 57.0088 100.523C56.7972 100.444 56.6108 100.31 56.469 100.134C56.3518 99.9668 56.289 99.7678 56.2891 99.5638C56.2685 99.3137 56.3269 99.0634 56.4561 98.8482C56.5852 98.633 56.7785 98.4638 57.0088 98.3643C57.267 98.2218 57.5542 98.1398 57.8486 98.1243C58.1667 98.0767 58.49 98.0767 58.8081 98.1243C59.061 98.2026 59.2819 98.3604 59.4379 98.5742C59.5985 98.7954 59.7016 99.0531 59.7379 99.324H59.1381C59.1238 99.1926 59.0814 99.0658 59.0142 98.952C58.947 98.8383 58.8564 98.7401 58.7482 98.6642C58.5013 98.4999 58.2011 98.4356 57.9085 98.4843C57.6175 98.4903 57.3353 98.5844 57.0989 98.7542C57.0253 98.8175 56.9658 98.8956 56.9244 98.9834C56.8831 99.0713 56.8608 99.1668 56.8589 99.2639C56.8658 99.3431 56.891 99.4196 56.9327 99.4873C56.9743 99.555 57.0313 99.612 57.0989 99.6538C57.3887 99.8323 57.7185 99.9354 58.0584 99.9537C58.4183 99.9806 58.7722 100.062 59.1081 100.194C59.3654 100.264 59.5953 100.41 59.7678 100.613C59.8959 100.813 59.9779 101.038 60.0077 101.273C60.0117 101.525 59.9496 101.773 59.8278 101.993C59.6909 102.24 59.4815 102.439 59.228 102.563C58.9514 102.713 58.6431 102.795 58.3284 102.803C57.973 102.884 57.6041 102.884 57.2488 102.803C56.9596 102.716 56.7067 102.537 56.5291 102.293C56.351 102.047 56.2469 101.756 56.2291 101.453L56.1991 101.573ZM60.9974 102.713L60.4877 98.0044H61.0873L61.6271 102.713H60.9974ZM62.2269 102.713L63.0367 97.7045L63.6963 97.5546L66.6952 101.813H65.9755L65.166 100.523L63.1866 100.913L62.9766 102.443H62.347L62.2269 102.713ZM63.1566 100.554L64.7461 100.194L63.9963 99.024C63.7987 98.7351 63.6185 98.4347 63.4566 98.1243C63.4862 98.4435 63.4862 98.7648 63.4566 99.084L63.2466 100.554H63.1566ZM67.745 101.483L66.6654 97.4346L65.166 97.8245L65.0159 97.2846L68.6446 96.325L68.7945 96.8648L67.2951 97.2846L68.3448 101.333L67.745 101.483ZM70.5339 100.613L68.9146 96.175L69.5142 95.9651L71.1338 100.404L70.5339 100.613ZM71.1037 98.0044C70.855 97.3785 70.855 96.6811 71.1037 96.0552C71.212 95.7677 71.3804 95.5066 71.5976 95.2894C71.8148 95.0722 72.0758 94.9038 72.3632 94.7956C72.7403 94.6312 73.1541 94.5691 73.5629 94.6156C73.964 94.6791 74.3385 94.856 74.6424 95.1254C74.9735 95.4095 75.2308 95.7697 75.3922 96.175C75.5707 96.5911 75.6528 97.0423 75.6321 97.4946C75.6018 97.8971 75.456 98.2823 75.2122 98.6042C74.9542 98.917 74.6251 99.1638 74.2526 99.324C73.8657 99.4913 73.4388 99.5433 73.0231 99.4739C72.6228 99.4276 72.246 99.2601 71.9433 98.994C71.638 98.7171 71.393 98.3803 71.2236 98.0044H71.1037ZM71.7036 97.7645C71.8798 98.2227 72.2226 98.5976 72.6632 98.8141C72.8611 98.9035 73.0757 98.9498 73.2929 98.9498C73.5101 98.9498 73.7248 98.9035 73.9227 98.8141C74.1239 98.7356 74.3058 98.6146 74.4559 98.4594C74.606 98.3041 74.7207 98.1182 74.7923 97.9145C74.9809 97.4428 74.9809 96.9166 74.7923 96.4449C74.671 96.1155 74.4761 95.8181 74.2225 95.5753C74.004 95.3752 73.734 95.2402 73.4428 95.1854C73.1577 95.1105 72.8582 95.1105 72.5732 95.1854C72.3722 95.262 72.1888 95.3785 72.0341 95.528C71.8795 95.6775 71.7569 95.8569 71.6735 96.0552C71.4744 96.5663 71.4744 97.1335 71.6735 97.6446L71.7036 97.7645ZM76.8916 97.9444L74.6424 93.776L75.1822 93.476L79.1408 95.5753L77.3714 92.3065L77.9113 92.0066L80.1605 96.175L79.5907 96.475L75.6321 94.4057L77.4014 97.6745L76.8916 97.9444Z" fill="#A1897E"/>
<path fill-rule="evenodd" clip-rule="evenodd" d="M83.1901 90.687C83.3496 90.7578 83.4936 90.8594 83.6138 90.986C83.7341 91.1125 83.8283 91.2614 83.891 91.4243C83.9536 91.5872 83.9835 91.7609 83.979 91.9354C83.9745 92.1099 83.9359 92.2818 83.865 92.4413C83.7941 92.6008 83.6924 92.7448 83.5659 92.865C83.4394 92.9853 83.2904 93.0794 83.1275 93.1421C82.9646 93.2047 82.7909 93.2346 82.6165 93.2302C82.442 93.2257 82.27 93.187 82.1105 93.1161C81.7884 92.9729 81.5364 92.7076 81.4099 92.3786C81.2833 92.0496 81.2927 91.6839 81.4359 91.3617C81.579 91.0396 81.8443 90.7875 82.1733 90.661C82.5023 90.5344 82.868 90.5438 83.1901 90.687Z" fill="#A1897E"/>
<g clip-path="url(#clip1_1_309)">
<mask id="mask0_1_309" style="mask-type:luminance" maskUnits="userSpaceOnUse" x="18" y="29" width="67" height="66">
<path d="M84.717 50.1719L36.7734 29.821L18.0021 74.0437L65.9457 94.3945L84.717 50.1719Z" fill="white"/>
</mask>
<g mask="url(#mask0_1_309)">
<path opacity="0.933" fill-rule="evenodd" clip-rule="evenodd" d="M64.2105 41.3829C64.8785 41.6664 65.5462 41.9499 66.2142 42.2334C66.4037 43.1341 66.7028 44.0211 67.1114 44.8944C66.8642 45.0727 66.6198 45.2504 66.3783 45.4277C66.3535 45.9487 66.3042 46.4627 66.2306 46.9696C66.9881 47.2255 67.6733 47.6008 68.2862 48.0955C68.4925 48.9826 68.5364 49.8739 68.4179 50.7694C68.5003 50.9733 68.5827 51.1771 68.665 51.381C69.0573 51.1941 69.452 51.1927 69.8491 51.3769C70.1927 51.5979 70.51 51.8451 70.801 52.1187C70.6951 52.3057 70.638 52.5067 70.6295 52.7216C71.5338 52.1601 72.5198 51.9593 73.5876 52.1193C73.9645 52.9503 74.4097 53.7585 74.923 54.544C75.0717 54.3887 75.1766 54.208 75.2375 54.0019C76.0075 54.3674 76.7101 54.8346 77.3451 55.4033C77.5101 55.3911 77.6735 55.4041 77.8352 55.4424C78.4788 55.8908 79.0453 56.4128 79.5351 57.0085C80.0174 56.9127 80.4396 56.9794 80.8015 57.2082C80.6484 57.354 80.4821 57.4805 80.3027 57.5876C80.5064 57.8296 80.5583 58.105 80.4586 58.4139C80.1149 58.9352 79.6637 59.3348 79.1052 59.6129C79.1383 59.7438 79.2034 59.8559 79.3003 59.949C79.5225 59.9174 79.7337 59.9507 79.9335 60.0489C79.7617 60.4842 79.4393 60.7134 78.9662 60.7362C79.0725 60.8628 79.2055 60.9475 79.3652 60.99C79.2256 61.3895 79.1352 61.8016 79.0938 62.226C79.0772 62.4311 79.1559 62.5771 79.3301 62.6641C79.2491 62.8549 79.1681 63.0458 79.0871 63.2366C78.7937 63.6753 78.448 64.0916 78.0503 64.4855C77.3142 64.3591 76.5753 64.2426 75.8341 64.1359C75.5176 64.2683 75.2392 64.4598 74.999 64.7104C74.6614 64.728 74.3418 64.8177 74.0405 64.9791C73.7138 65.6711 73.3486 66.3324 72.9449 66.9632C71.741 66.6306 70.5556 66.24 69.3887 65.7914C69.8121 66.197 70.3064 66.4912 70.8718 66.6743C70.8292 66.834 70.7447 66.967 70.618 67.0733C70.2481 67.1761 69.8671 67.2114 69.4752 67.1794C69.1656 67.428 68.8432 67.6571 68.5078 67.8666C67.439 68.0939 66.3677 68.2303 65.2939 68.2758C64.4873 68.7349 63.6928 69.2139 62.9103 69.7131C63.1605 69.3724 63.4178 69.0312 63.6825 68.6897C62.996 68.8292 62.3605 69.0661 61.7762 69.4006C61.6807 69.3601 61.6129 69.3876 61.5723 69.483C61.4769 69.4425 61.409 69.4699 61.3685 69.5654C61.1544 69.4622 60.9707 69.4969 60.8176 69.6694C59.7224 69.5612 58.9006 69.0434 58.3522 68.1162C57.8947 68.0956 57.4892 67.9235 57.1358 67.5998C56.7116 67.4755 56.2792 67.4328 55.839 67.4716C54.0456 68.4666 52.3142 69.5614 50.6445 70.756C50.227 71.1795 49.8611 71.6436 49.547 72.148C48.5509 74.0964 47.6049 76.0595 46.7093 78.0374C48.2256 76.9894 49.8977 76.4324 51.7256 76.3664C52.0047 76.3722 52.2431 76.4734 52.4411 76.6701C50.371 76.7161 48.5701 77.4436 47.0387 78.8528C46.6678 79.2484 46.3222 79.6646 46.0019 80.1017C45.3435 81.454 44.7324 82.8274 44.1686 84.2217C43.5686 84.0217 43.0164 83.7311 42.512 83.3496C43.765 81.1633 44.9378 78.9307 46.0308 76.6515C46.8744 73.705 47.1633 70.703 46.8978 67.6455C46.7968 67.346 46.6631 67.0641 46.4968 66.7997C46.4289 66.8271 46.3608 66.8546 46.2929 66.882C46.6104 68.6847 46.2505 68.8697 45.2129 67.437C44.6081 67.3585 44.0197 67.4183 43.4476 67.6166C42.7279 67.4929 42.1822 67.1205 41.8105 66.4995C41.8408 66.0004 42.1054 65.7749 42.6044 65.823C43.1552 65.1713 43.8202 64.6653 44.5998 64.3054C44.8635 64.1565 45.0124 63.9382 45.0466 63.6506C43.7068 61.0239 41.8516 58.829 39.4812 57.0656C39.7876 57.1395 40.0941 57.2132 40.4006 57.287C41.1173 57.6561 41.7823 58.0791 42.3954 58.556C42.17 56.8004 42.1299 55.0381 42.275 53.269C42.0927 53.1384 41.8817 53.105 41.6418 53.1691C40.9348 53.3757 40.2278 53.5823 39.5208 53.7889C38.721 53.696 37.9244 53.5832 37.1311 53.4501C36.0679 53.997 35.3523 53.6933 34.9844 52.5389C33.6684 52.108 32.4989 51.4146 31.476 50.4585C31.0742 50.5986 30.7099 50.5284 30.3831 50.2479C29.7489 49.4114 29.3544 48.4839 29.1996 47.4654C29.2198 47.4177 29.2401 47.3699 29.2603 47.3223C29.8215 46.8442 30.3948 46.3555 30.9803 45.8567C31.1983 45.7487 31.426 45.6765 31.6635 45.6399C31.9861 44.8657 32.3817 44.1327 32.8501 43.4412C34.0921 42.7614 35.3522 42.114 36.6303 41.4989C37.1245 41.5328 37.564 41.6912 37.9488 41.9741C37.7415 41.0614 37.7655 40.1426 38.0209 39.2178C37.7287 38.2603 37.8106 37.338 38.2665 36.4507C39.1215 36.7922 39.9413 36.7179 40.7257 36.2279C41.9575 36.6517 43.2007 37.0386 44.4554 37.3888C45.2008 37.7567 45.8794 38.2137 46.4915 38.7597C46.8296 38.6574 47.173 38.578 47.5216 38.5214C47.9145 39.0123 48.2939 39.5111 48.6598 40.0179C48.769 39.9096 48.8912 39.8207 49.0264 39.7513C49.6556 39.8499 50.2483 40.0451 50.8045 40.3372C50.9129 40.4464 51.0019 40.5686 51.0712 40.7037C50.9366 41.1533 50.8021 41.6029 50.6675 42.0525C50.8772 41.6911 51.087 41.3297 51.2967 40.9683C51.535 40.7089 51.8306 40.6092 52.1837 40.6692C52.3612 41.0608 52.5701 41.431 52.8102 41.7797C53.5401 41.7483 54.2651 41.8309 54.9852 42.0273C55.2754 42.6183 55.6787 43.1273 56.195 43.5542C55.8534 42.562 56.1196 41.8023 56.9935 41.2752C58.4523 41.2668 59.8821 41.4796 61.2828 41.9136C61.5966 41.749 61.8612 41.5235 62.0767 41.2372C62.2741 41.2133 62.4714 41.2126 62.6687 41.2351C63.1457 41.7241 63.6597 41.7734 64.2105 41.3829ZM64.1405 44.7312C64.4654 44.992 64.8167 45.2256 65.1943 45.4318C64.7572 46.0477 64.1803 46.4785 63.4635 46.724C62.8812 46.8365 62.462 46.6304 62.2058 46.1057C62.5056 45.9958 62.4985 45.8802 62.1842 45.7587C61.8486 45.6751 61.5256 45.7068 61.2148 45.8539C61.2033 45.6889 61.2403 45.5357 61.3255 45.3942C61.4686 45.455 61.6118 45.5157 61.7549 45.5765C62.2655 44.4773 63.0607 44.1956 64.1405 44.7312ZM56.195 43.5542C56.3428 43.6025 56.4417 43.7008 56.492 43.8492C56.4943 44.3612 56.3836 44.8209 56.16 45.2284C56.1689 44.6761 56.1807 44.118 56.195 43.5542ZM44.1424 41.3095C43.8591 41.6305 43.6017 41.9717 43.3702 42.333C43.3236 42.1818 43.2448 42.0358 43.1339 41.8949C41.5834 42.0947 40.7169 41.4172 40.5341 39.8624C41.4456 38.6445 42.5472 38.4366 43.8392 39.2385C44.1908 39.9195 44.2919 40.6099 44.1424 41.3095ZM56.16 45.2284C56.3325 45.3815 56.3672 45.5651 56.264 45.7792C56.0915 45.6261 56.0568 45.4425 56.16 45.2284ZM43.331 42.8231C43.7404 43.5622 44.3779 43.9173 45.2435 43.8882C45.5389 43.8086 45.797 43.6648 46.0178 43.4568C46.3313 42.9166 46.5982 42.3543 46.8183 41.7698C46.5654 41.6895 46.337 41.5644 46.1331 41.3945C46.8173 41.4717 47.0839 41.8382 46.9331 42.4941C46.3778 44.4637 45.2768 44.8691 43.6301 43.7101C43.3777 43.4549 43.2781 43.1593 43.331 42.8231ZM56.264 45.7792C56.4283 45.9862 56.4427 46.2175 56.3072 46.4732C56.2298 46.6474 56.1214 46.7703 55.9818 46.8418C56.1352 46.5011 56.2293 46.1469 56.264 45.7792ZM45.7558 41.4877C46.0726 41.7269 46.0118 41.87 45.5735 41.917C45.6679 42.1013 45.7264 42.2951 45.7491 42.4982C46.4656 42.3752 46.5003 42.5588 45.8531 43.0491C45.2751 43.5843 44.6628 43.6341 44.0162 43.1984C44.3991 43.0982 44.5582 42.8561 44.4935 42.472C44.3099 42.5066 44.1263 42.5413 43.9426 42.576C44.2225 41.7095 44.8269 41.3468 45.7558 41.4877ZM48.9259 43.1711C48.7046 43.5972 48.57 44.0468 48.5223 44.5199C48.3838 44.6703 48.2276 44.7729 48.0538 44.8278C48.2337 44.445 48.3479 44.043 48.3967 43.6221C48.5222 43.3932 48.6987 43.2429 48.9259 43.1711ZM69.6426 53.6539C69.9566 53.4263 70.2177 53.143 70.4257 52.8039C70.513 53.4 70.2519 53.6833 69.6426 53.6539ZM55.9818 46.8418C55.7996 47.2711 55.6173 47.7005 55.4351 48.1298C55.2548 47.5531 55.437 47.1238 55.9818 46.8418ZM63.7101 50.1222C64.7879 50.915 64.9172 51.8707 64.0977 52.9892C63.1998 53.8231 62.2406 53.8944 61.2199 53.2033C60.4259 52.0278 60.5447 50.9522 61.5762 49.9765C62.3097 49.9778 63.0209 50.0263 63.7101 50.1222ZM52.0219 47.0188C52.145 46.9092 52.2909 46.8304 52.46 46.7825C51.75 46.5335 51.1211 46.6888 50.5733 47.2484C52.8882 47.8566 53.2905 49.0971 51.7804 50.97C50.9607 51.8532 49.9687 52.333 48.8049 52.4093C48.2355 52.22 47.7171 51.9155 47.2502 51.496C46.8282 50.3131 46.7764 49.1088 47.0947 47.8831C47.9471 46.3788 49.0387 46.1947 50.3694 47.3308C50.4938 46.8026 50.5532 46.2648 50.5476 45.7174C50.6155 45.6899 50.6835 45.6625 50.7514 45.635C50.7544 46.02 50.732 46.4046 50.684 46.7887C51.1058 46.4748 51.5403 46.1807 51.9875 45.9063C52.8607 45.7463 53.5286 46.0298 53.9911 46.7568C53.3585 47.0284 52.7022 47.1158 52.0219 47.0188ZM58.4364 48.2215C59.0103 48.384 59.4265 48.7296 59.6853 49.2583C59.846 49.1786 59.9783 49.0658 60.0822 48.9201C59.9807 49.4473 60.1252 49.9028 60.5157 50.2864C60.2889 51.6208 59.4813 52.2632 58.093 52.2138C56.2435 51.4575 55.9741 50.3015 57.2848 48.7461C57.6327 48.4677 58.0165 48.2928 58.4364 48.2215ZM75.9181 55.9798C76.3579 56.2596 76.8147 56.5097 77.2885 56.7304C76.5043 57.86 75.6166 57.9617 74.6254 57.0357C75.0605 56.9389 75.4958 56.8422 75.9309 56.7453C74.7962 56.5119 74.7919 56.2567 75.9181 55.9798ZM69.4388 53.7362C69.1775 54.1459 68.8761 54.5247 68.5342 54.8724C68.6024 54.2862 68.904 53.9075 69.4388 53.7362ZM74.2656 56.2918C74.4101 56.3481 74.4751 56.4601 74.4607 56.628C74.2167 57.0245 74.0004 57.4675 73.812 57.9572C74.0134 59.4555 73.9676 60.9561 73.6745 62.4591C73.0129 63.6947 71.9972 64.1645 70.6273 63.8681C69.804 63.2508 69.053 62.5662 68.3746 61.814C68.1043 59.7919 68.9849 58.6456 71.0166 58.3752C71.6833 58.1455 72.3151 57.8507 72.9121 57.4907C73.1329 57.5166 73.354 57.526 73.5757 57.5191C73.8944 57.1598 74.1243 56.7507 74.2656 56.2918ZM46.913 45.5258C46.7258 45.9409 46.4684 46.2821 46.1408 46.5493C46.2706 46.0886 46.528 45.7475 46.913 45.5258ZM67.6472 55.1715C67.8153 54.9752 67.9888 54.9644 68.1677 55.1391C67.9981 55.2425 67.8246 55.2533 67.6472 55.1715ZM54.7061 49.8472C54.6541 50.3056 54.5671 50.7754 54.4456 51.2567C54.364 51.2034 54.3127 51.1253 54.2917 51.0225C54.3813 50.6136 54.5194 50.2218 54.7061 49.8472ZM67.2395 55.3362C67.0435 55.6765 66.8578 56.0481 66.6819 56.4508C66.5934 56.5071 66.5016 56.5244 66.4065 56.5028C66.7125 56.2673 66.8442 55.9572 66.8014 55.5725C66.9003 55.3948 67.0463 55.3159 67.2395 55.3362ZM46.1408 46.5493C46.0585 46.7722 45.9023 46.8748 45.6723 46.8571C45.7546 46.6341 45.9108 46.5315 46.1408 46.5493ZM39.8654 44.2233C40.4974 44.4636 41.1074 44.7507 41.6955 45.0846C41.9578 45.2801 42.0777 45.5281 42.0553 45.8285C41.3385 45.2578 40.6085 44.7227 39.8654 44.2233ZM54.6103 51.6645C54.9832 51.8162 55.2087 52.0808 55.2868 52.4583C54.9848 52.2469 54.7593 51.9823 54.6103 51.6645ZM37.662 44.6392C37.77 44.8119 37.7331 44.9651 37.5513 45.0989C37.1715 45.1631 36.8455 45.3343 36.5732 45.6127C36.1932 45.6165 35.8289 45.5463 35.4802 45.4021C35.9387 44.6046 36.5879 44.4016 37.4277 44.7932C37.5306 44.7722 37.6086 44.7209 37.662 44.6392ZM65.9988 56.6675C65.8701 56.8381 65.7413 57.0086 65.6127 57.1792C65.518 56.864 65.6468 56.6934 65.9988 56.6675ZM42.324 46.7871C42.5826 47.1745 42.8731 47.5512 43.1956 47.9171C42.6532 47.7446 42.3627 47.3679 42.324 46.7871ZM55.3691 52.6622C55.511 52.86 55.5832 53.0877 55.5859 53.3453C56.7796 53.8786 58.0228 54.2655 59.3156 54.5063C59.6951 54.7458 60.0363 55.0032 60.339 55.2785C59.3927 54.7937 58.3981 54.4841 57.3552 54.3497C56.8393 54.6536 56.589 55.1104 56.6046 55.7201C56.4589 55.4495 56.417 55.1503 56.479 54.8223C56.7512 54.6774 56.8423 54.4627 56.7524 54.1783C56.0567 53.7866 55.3108 53.5544 54.5146 53.4817C54.7246 53.3 54.9559 53.2855 55.2085 53.4385C55.2943 53.1851 55.3479 52.9263 55.3691 52.6622ZM43.4164 49.7843C43.4314 49.2793 43.4229 48.769 43.3907 48.2532C43.5696 48.3579 43.7568 48.381 43.9523 48.3227C43.8222 48.8277 43.6435 49.3149 43.4164 49.7843ZM60.339 55.2785C62.1107 56.1728 63.8325 57.1569 65.5041 58.231C65.5624 58.4265 65.5392 58.6137 65.4345 58.7926C65.2293 58.3736 64.9185 58.0446 64.5022 57.8057C63.0752 56.9856 61.6875 56.1432 60.339 55.2785ZM37.1369 46.2742C39.6257 47.1026 40.2333 48.6554 38.9597 50.9327C37.9368 51.9742 36.8821 52.0051 35.7957 51.0254C34.5806 49.5683 34.6437 48.1594 35.9852 46.7988C36.3907 46.6551 36.7746 46.4802 37.1369 46.2742ZM59.6317 57.3428C59.3517 57.2889 59.1378 57.395 58.9897 57.6615C59.0668 58.1496 59.2011 58.6289 59.3928 59.0994C58.9215 59.7129 58.503 59.7042 58.1372 59.0731C58.3423 58.5444 58.589 58.0298 58.877 57.5292C58.9746 57.2328 59.0723 56.9365 59.1699 56.6401C58.9607 56.2954 59.0148 56.234 59.3326 56.4558C59.4698 56.7457 59.5696 57.0414 59.6317 57.3428ZM53.5168 54.2405C53.4231 54.457 53.2569 54.5835 53.018 54.62C52.6527 54.5392 52.2884 54.469 51.9251 54.4094C52.444 54.3731 52.9745 54.3169 53.5168 54.2405ZM65.5385 59.3434C65.8353 59.9925 65.9942 60.6793 66.0152 61.4037C65.6258 60.7883 65.4668 60.1016 65.5385 59.3434ZM43.438 50.1312C43.6217 50.4583 43.6672 50.8154 43.5744 51.2026C43.3768 51.853 43.1851 52.5035 42.9994 53.1542C43.5268 53.2353 44.0342 53.3663 44.5217 53.547C44.9549 54.2128 45.4131 54.8577 45.8962 55.4816C46.1202 55.6968 46.3652 55.7164 46.6313 55.5403C46.8646 55.7754 46.9983 56.0574 47.0323 56.3862C47.1956 56.6163 47.414 56.7652 47.6872 56.833C48.0477 55.9953 48.6593 55.7482 49.5219 56.0917C49.1836 56.1832 48.8265 56.2288 48.4506 56.2281C48.3155 56.2975 48.1932 56.3864 48.0841 56.4948C47.7807 57.2083 47.5247 57.9442 47.316 58.7023C47.4345 59.0928 47.6195 59.4527 47.8709 59.7824C47.7996 60.1537 47.7532 60.5283 47.7319 60.9057C47.9729 61.3318 48.2534 61.7324 48.5731 62.1072C48.4165 62.6715 48.2414 63.2165 48.048 63.7422C48.0014 63.5777 47.9227 63.4318 47.8117 63.3041C47.1792 63.2563 46.6306 63.0234 46.1658 62.6055C45.9345 62.62 45.7032 62.6343 45.4719 62.6488C42.5667 59.2901 41.8663 55.5021 43.3706 51.2849C43.3923 50.8966 43.4149 50.5119 43.438 50.1312ZM56.6046 55.7201C56.7771 55.8732 56.8118 56.0569 56.7086 56.271C56.5361 56.1179 56.5014 55.9342 56.6046 55.7201ZM60.3338 59.6677C60.195 59.5399 60.0924 59.3837 60.026 59.1992C60.0602 58.615 59.9562 58.0641 59.714 57.5467C60.0229 57.693 60.3128 57.8723 60.5835 58.0847C61.0052 58.1625 61.4237 58.1713 61.8391 58.111C62.7418 59.1773 62.4951 59.692 61.0994 59.6548C60.7581 59.2992 60.6274 58.8779 60.7071 58.3905C60.5568 58.214 60.3659 58.133 60.1346 58.1475C60.2701 58.6512 60.3366 59.1579 60.3338 59.6677ZM56.7086 56.271C56.7767 56.754 56.7376 57.2441 56.5912 57.7413C56.4001 57.2516 56.4393 56.7615 56.7086 56.271ZM51.9251 54.4094C51.7486 54.5596 51.5448 54.642 51.3135 54.6565C51.435 54.3703 51.6388 54.2879 51.9251 54.4094ZM60.4852 62.0966C60.3756 61.9735 60.2967 61.8276 60.2489 61.6585C60.1405 61.7813 60.0319 61.9042 59.9235 62.0271C60.2716 61.2623 60.4084 60.4758 60.3338 59.6677C60.4767 59.9607 60.6782 60.2152 60.9387 60.4312C61.4677 60.4152 61.9847 60.325 62.4893 60.1604C63.1038 60.3991 63.4117 60.8676 63.4129 61.5658C62.371 62.4561 61.6727 62.2441 61.3181 60.93C61.1549 60.6999 60.9365 60.551 60.6633 60.4832C60.5387 61.0152 60.4793 61.5529 60.4852 62.0966ZM50.5196 55.3329C50.4405 55.6706 50.2438 55.8686 49.9297 55.927C50.0876 55.6726 50.2844 55.4746 50.5196 55.3329ZM53.2604 56.8341C53.3399 57.2072 53.4331 57.5845 53.54 57.9662C54.6272 57.8646 54.7436 58.0548 53.889 58.5366C52.6613 58.6428 51.8157 58.1149 51.3521 56.953C51.7689 57.183 52.2084 57.3414 52.6705 57.4282C52.903 57.2609 53.0997 57.0628 53.2604 56.8341ZM56.6952 58.2921C56.7516 58.5309 56.7559 58.7861 56.7081 59.0576C56.1468 59.8861 55.762 60.7926 55.5538 61.7768C54.7089 63.1061 54.6612 63.0859 55.4107 61.7161C55.6403 60.5143 56.0685 59.3729 56.6952 58.2921ZM59.6399 59.7109C59.5113 60.311 59.4554 60.9067 59.4725 61.4978C59.104 61.6865 58.7165 61.8035 58.3101 61.8489C57.7335 60.6519 58.0957 60.13 59.3969 60.2834C59.4779 60.0926 59.5589 59.9017 59.6399 59.7109ZM67.0427 63.36C67.2335 63.441 67.2885 63.5769 67.2075 63.7677C67.0846 63.6593 67.0297 63.5233 67.0427 63.36ZM67.2075 63.7677C67.2884 63.9355 67.3231 64.1191 67.3115 64.3185C67.1094 64.1786 67.0747 63.9949 67.2075 63.7677ZM53.0216 58.5906C53.8765 58.9485 54.2292 59.5767 54.0795 60.4754C53.657 61.1277 53.1213 61.6604 52.4722 62.0733C51.9841 62.3713 51.5076 62.3661 51.0431 62.0578C50.5154 61.0446 50.4029 59.9834 50.7054 58.8743C50.8566 58.5751 51.101 58.3973 51.4385 58.3409C51.983 58.4474 52.5107 58.5307 53.0216 58.5906ZM62.1809 62.4786C63.2806 62.9869 63.3266 63.5413 62.3194 64.1419C62.0403 64.1361 61.8019 64.0349 61.6038 63.8382C61.5143 63.5186 61.4246 63.1991 61.3351 62.8796C61.6389 62.777 61.921 62.6434 62.1809 62.4786ZM60.4852 62.0966C60.6728 62.2857 60.881 62.4585 61.1096 62.615C60.9463 62.6019 60.7829 62.5889 60.6195 62.5759C60.712 62.7364 60.6852 62.8657 60.5392 62.964C60.4285 62.6789 60.4106 62.3897 60.4852 62.0966ZM59.6481 62.0791C60.3237 63.3348 59.9484 64.02 58.5222 64.1347C57.8136 62.824 58.1889 62.1388 59.6481 62.0791ZM60.654 63.6883C60.7769 63.7968 60.8318 63.9327 60.8187 64.0961C60.628 64.0151 60.573 63.8791 60.654 63.6883ZM62.3714 64.4173C62.7728 64.5744 63.1239 64.8079 63.4252 65.118C62.9009 65.9506 62.3363 66.0205 61.7315 65.328C61.8001 64.9239 62.0135 64.6203 62.3714 64.4173ZM60.3286 64.0569C60.5437 64.5619 60.7157 65.0853 60.8445 65.6271C59.8347 66.5174 59.31 66.2947 59.2702 64.9589C59.6776 64.7165 60.0305 64.4158 60.3286 64.0569ZM61.0658 64.7077C61.2089 64.7684 61.3521 64.8292 61.4952 64.8899C61.4344 65.033 61.3737 65.1761 61.3129 65.3193C61.1627 65.1428 61.0803 64.939 61.0658 64.7077ZM63.0911 65.9051C64.0519 66.1699 64.1588 66.5813 63.4118 67.1391C63.0734 67.0354 62.7329 66.9753 62.3904 66.9589C61.9858 66.5551 62.0503 66.4698 62.5835 66.7031C62.7113 66.4086 62.8805 66.1426 63.0911 65.9051ZM54.6771 65.036C54.122 64.8715 53.5567 64.7442 52.9813 64.654C53.2787 64.973 53.6096 65.2541 53.9744 65.4978C53.7807 65.5563 53.5869 65.6149 53.3932 65.6733C53.7782 66.0901 54.1642 66.5073 54.5509 66.9249C53.4728 67.4935 52.4065 68.0825 51.3519 68.6916C51.562 67.1598 51.7335 65.6281 51.8668 64.0965C52.3843 64.2035 52.9019 64.3107 53.4194 64.4177C53.6525 64.4381 53.87 64.3896 54.0722 64.2726C54.7876 62.325 54.8831 62.3655 54.3584 64.3941C54.4533 64.6262 54.5596 64.8402 54.6771 65.036ZM61.56 65.9309C61.7124 65.9665 61.7875 66.0548 61.7855 66.1955C61.4886 66.328 61.4135 66.2399 61.56 65.9309ZM61.5209 66.4209C61.7513 66.7468 61.8785 67.1105 61.9024 67.5118C61.4793 67.9781 61.1048 67.9316 60.7791 67.3728C60.7384 67.2608 60.7313 67.1451 60.7574 67.0258C60.998 66.7929 61.2525 66.5913 61.5209 66.4209ZM51.0601 64.0074C51.2078 64.0556 51.3068 64.154 51.3571 64.3024C51.2495 65.7914 50.9448 67.2386 50.4433 68.6437C49.7377 69.7036 48.9894 70.7371 48.1982 71.7444C47.9893 70.1008 47.8168 68.4512 47.6809 66.7956C49.0149 66.1155 50.1413 65.1862 51.0601 64.0074Z" fill="#A1897E"/>
<path opacity="0.338" fill-rule="evenodd" clip-rule="evenodd" d="M43.2403 40.2511C43.6891 40.4268 43.7064 40.5186 43.2923 40.5265C42.4751 40.4458 41.6785 40.3329 40.9026 40.1878C41.695 40.1612 42.4743 40.1824 43.2403 40.2511Z" fill="#A1897E"/>
<path opacity="0.587" fill-rule="evenodd" clip-rule="evenodd" d="M64.122 51.1416C64.3295 51.7379 64.1986 52.2453 63.7292 52.6638C63.7346 52.1276 63.8655 51.6202 64.122 51.1416Z" fill="#A1897E"/>
<path opacity="0.516" fill-rule="evenodd" clip-rule="evenodd" d="M59.772 50.6462C59.9053 50.6807 59.9805 50.7689 59.9975 50.9108C59.6689 51.4958 59.1802 51.8514 58.5313 51.9775C58.4938 51.9334 58.4561 51.8893 58.4186 51.8452C58.9181 51.4957 59.3692 51.0961 59.772 50.6462Z" fill="#A1897E"/>
<path opacity="0.648" fill-rule="evenodd" clip-rule="evenodd" d="M51.4754 48.3069C51.9755 48.5664 52.1402 48.9741 51.9696 49.5301C51.7218 49.9603 51.3689 50.2609 50.9111 50.432C51.1097 49.9169 51.3087 49.3821 51.5078 48.8274C51.4043 48.6578 51.3935 48.4843 51.4754 48.3069Z" fill="#A1897E"/>
<path opacity="0.677" fill-rule="evenodd" clip-rule="evenodd" d="M72.9157 61.4614C73.0351 61.6835 73.0393 61.9386 72.9286 62.227C72.7153 62.8504 72.2844 63.2022 71.6359 63.2828C71.6186 63.191 71.6012 63.0992 71.5839 63.0074C72.0423 62.5004 72.4863 61.9852 72.9157 61.4614Z" fill="#A1897E"/>
<path opacity="0.549" fill-rule="evenodd" clip-rule="evenodd" d="M37.0154 46.5605C37.1751 46.603 37.3081 46.6876 37.4144 46.8143C36.9237 46.9334 36.5095 47.1798 36.1717 47.5536C35.7656 48.2524 35.5095 48.9882 35.4035 49.761C35.1738 48.2919 35.7112 47.225 37.0154 46.5605Z" fill="#A1897E"/>
<path opacity="0.625" fill-rule="evenodd" clip-rule="evenodd" d="M38.7154 48.1265C38.9637 48.1958 39.1581 48.3347 39.2987 48.543C39.4103 49.1253 39.2793 49.6327 38.9059 50.0653C38.7039 49.4321 38.6404 48.786 38.7154 48.1265Z" fill="#A1897E"/>
<path opacity="0.937" fill-rule="evenodd" clip-rule="evenodd" d="M60.8173 69.6693C61.0314 69.7725 61.2151 69.7378 61.3682 69.5653C61.4636 69.6059 61.5315 69.5784 61.572 69.483C61.6675 69.5235 61.7354 69.4961 61.7759 69.4006C61.9568 69.3418 62.11 69.3786 62.2356 69.5113C62.5297 70.6306 62.9553 71.6838 63.5123 72.6712C63.8865 72.5034 64.274 72.3863 64.6747 72.3201C64.9143 72.6665 65.2072 72.7064 65.553 72.4396C66.1612 72.5435 66.6656 72.8139 67.0665 73.2509C66.8398 73.3072 66.6496 73.4234 66.4961 73.5999C66.3237 73.9321 66.1104 74.2358 65.8562 74.5106C64.9391 74.6664 64.1796 74.4002 63.5772 73.7121C62.607 74.459 61.5191 74.7009 60.3133 74.438C59.7088 74.8008 59.1046 75.1635 58.5001 75.5262C57.4178 75.6369 56.6473 75.1971 56.1887 74.2073C56.4139 74.0769 56.638 73.9469 56.861 73.8171C56.9351 73.329 57.0559 72.8455 57.2234 72.3663C57.1823 72.2644 57.1411 72.1625 57.0999 72.0606C56.436 71.7595 55.8868 71.3293 55.452 70.7699C55.0901 70.7002 54.7358 70.6061 54.3895 70.4878C54.4894 70.1879 54.6348 69.9118 54.8255 69.6595C55.7321 69.3325 56.6566 69.0776 57.5993 68.8945C58.388 68.9229 59.0899 69.1928 59.7048 69.7038C60.091 69.8071 60.4619 69.7956 60.8173 69.6693Z" fill="#A1897E"/>
<path opacity="0.918" fill-rule="evenodd" clip-rule="evenodd" d="M30.1258 79.1054C29.6964 78.9231 29.2671 78.7409 28.8377 78.5586C29.6321 76.6321 30.5137 74.7543 31.4824 72.9251C30.3591 74.1426 29.4213 75.4898 28.6689 76.9669C29.2735 77.2347 29.2778 77.4898 28.6817 77.7324C27.9886 77.6523 27.2976 77.5561 26.6086 77.4435C26.2926 77.2969 26.2204 77.0691 26.3919 76.7604C27.0872 75.6119 27.8182 74.4866 28.585 73.3843C29.7511 72.0511 30.8248 70.649 31.8062 69.1779C32.1422 68.1858 32.428 67.1811 32.6634 66.1637C32.0977 66.9585 31.5561 67.7702 31.0386 68.5987C30.967 68.9759 30.9785 69.3468 31.0731 69.7112C30.951 69.8614 30.8794 69.831 30.8584 69.6201C30.7221 69.8326 30.5594 70.0169 30.3704 70.173C30.1647 70.1627 30.0758 70.0405 30.1037 69.8064C30.7026 67.7617 31.4851 65.7857 32.4513 63.878C32.5598 63.7551 32.6682 63.6322 32.7767 63.5094C33.2556 63.4008 33.6973 63.2223 34.1018 62.974C33.8376 62.2708 33.876 61.5835 34.2171 60.9117C35.1148 60.4826 35.8369 60.7047 36.3834 61.5779C36.2515 62.2018 35.9984 62.7981 35.6241 63.3668C36.0251 63.7563 36.377 64.1872 36.6799 64.6595C36.629 66.4503 36.7168 68.2329 36.9435 70.0073C37.1408 70.6849 37.4797 71.2792 37.9602 71.7901C37.9612 73.3703 37.3567 74.662 36.1465 75.665C35.5812 75.5377 35.0565 75.315 34.5723 74.9968C34.3738 73.2122 35.0189 71.8252 36.5075 70.8356C36.08 69.8276 35.76 68.791 35.5473 67.7257C35.278 69.0245 34.9286 70.3119 34.4991 71.5877C33.7344 73.0511 32.8818 74.4627 31.9415 75.8225C31.5467 76.5539 31.1989 77.3071 30.898 78.082C31.3834 78.188 31.6566 78.4729 31.7175 78.9365C31.6293 79.0117 31.5412 79.0868 31.4529 79.162C30.9912 79.1778 30.5488 79.159 30.1258 79.1054ZM36.6722 71.2434C37.6669 71.5529 37.914 72.1645 37.4135 73.0781C36.7934 72.8149 36.1731 72.5516 35.5529 72.2884C35.7709 71.768 36.144 71.4196 36.6722 71.2434ZM35.9216 72.6138C36.3898 72.7637 36.7888 73.0175 37.1185 73.3752C36.601 73.2682 36.1238 73.0656 35.6874 72.7677C35.7902 72.7467 35.8682 72.6953 35.9216 72.6138Z" fill="#A1897E"/>
<path opacity="0.922" fill-rule="evenodd" clip-rule="evenodd" d="M64.2255 75.1696C64.9224 75.55 64.9237 75.9448 64.2296 76.3536C64.1967 76.5764 64.2553 76.7702 64.4051 76.9348C65.0505 76.8135 65.7003 76.8078 66.3547 76.9179C67.1883 77.6637 67.9363 78.488 68.5987 79.3905C68.2302 80.1553 67.7016 80.8036 67.0131 81.3354C67.0192 81.9932 67.0487 82.6531 67.1016 83.3154C66.9419 84.109 66.6996 84.8788 66.3747 85.6248C65.6495 87.147 64.9198 88.667 64.1857 90.1849C62.8989 90.9053 62.7013 91.8348 63.5931 92.9736C62.973 92.8568 62.4005 92.6138 61.8757 92.2446C62.2443 91.4424 62.5647 90.6212 62.8369 89.7813C62.2839 89.2498 61.6363 88.9187 60.894 88.7877C60.2702 89.3211 59.7757 89.9557 59.4103 90.6914C58.8462 90.9501 58.3322 90.9008 57.8685 90.5437C59.2042 89.8795 59.9966 88.8084 60.2459 87.3303C60.7171 86.7096 61.2016 86.099 61.6992 85.4981C61.5761 85.1352 61.5646 84.7643 61.6647 84.3856C62.3193 83.3347 63.1088 82.403 64.0334 81.5907C63.8415 81.0274 63.5879 80.4975 63.2725 80.001C62.5003 81.3324 61.7359 82.6689 60.9795 84.0103C60.8532 84.735 60.7467 85.4498 60.6603 86.155C60.1221 86.5122 59.5473 86.6061 58.9363 86.4365C58.3676 85.9837 57.8045 85.5196 57.2472 85.044C57.0119 85.0122 56.7806 85.0266 56.5532 85.0872C56.5617 84.8724 56.6188 84.6713 56.7247 84.4844C57.254 84.7792 57.8092 84.9304 58.3901 84.9379C58.2648 84.5617 58.3249 84.2212 58.5703 83.9166C59.3233 83.7309 60.0505 83.4764 60.752 83.1537C61.4946 81.7918 62.0204 80.3542 62.3294 78.8406C62.5896 78.5086 62.8846 78.2115 63.2144 77.9495C62.6052 77.6203 62.1579 77.149 61.8723 76.5353C61.9452 75.8753 62.2771 75.425 62.868 75.1845C63.3363 75.2355 63.7889 75.2305 64.2255 75.1696ZM66.6667 78.5704C67.6697 79.1176 67.7571 79.7741 66.9287 80.5395C66.7991 79.8814 66.7119 79.225 66.6667 78.5704Z" fill="#A1897E"/>
<path opacity="0.553" fill-rule="evenodd" clip-rule="evenodd" d="M56.2173 85.2823C56.3604 85.3431 56.5035 85.4038 56.6466 85.4646C56.5657 85.6554 56.4846 85.8463 56.4036 86.0371C56.2605 85.9763 56.1174 85.9156 55.9743 85.8548C56.0553 85.664 56.1363 85.4731 56.2173 85.2823Z" fill="#A1897E"/>
</g>
</g>
</g>
<defs>
<clipPath id="clip0_1_309">
<rect width="110" height="110" fill="white"/>
</clipPath>
<clipPath id="clip1_1_309">
<rect width="52.084" height="48.0417" fill="white" transform="translate(36.7734 29.821) rotate(23)"/>
</clipPath>
</defs>
</svg>
